<svg width="147" height="147" viewBox="0 0 147 147" fill="none" xmlns="http://www.w3.org/2000/svg">
<path d="M22.6331 0.0535277C22.7122 0.0502688 22.7914 0.0474999 22.8705 0.045206C25.8967 -0.0522136 29.4426 0.0381459 32.5116 0.0381682L51.4438 0.0382574L63.0253 0.0400911C64.8664 0.0401208 66.8351 -0.0335656 68.6178 0.0700749C71.1295 0.216111 71.0161 2.83534 70.9647 4.6479C70.9414 5.46825 70.9646 6.30497 70.9641 7.11673L70.9622 16.8854C71.8383 18.2643 73.6422 20.5247 74.6778 21.9055L81.8237 31.4256C82.5535 32.3953 86.0641 36.8462 86.0975 37.5516C86.3046 41.9619 86.0366 48.7576 86.1673 53.0998C92.1061 53.249 97.8661 55.8973 102.639 59.3108C102.968 59.5465 103.666 60.1073 104.063 60.0878C104.466 59.6552 104.078 56.7178 103.967 55.9342C103.232 50.7702 100.87 46.0608 99.4747 41.0719C98.9247 39.1679 98.5965 37.2065 98.4993 35.2269C98.2788 29.8285 99.4391 26.5151 101.613 21.7214C103.075 22.4106 104.773 23.2442 106.18 24.0146C103.634 28.7948 102.783 33.9983 104.234 39.2724C105.538 44.0156 107.681 48.4763 108.659 53.3099C108.891 54.4521 109.045 55.5931 109.219 56.7447C114.693 53.9055 119.916 52.2633 126.22 53.5067C132.038 54.6543 137.057 58.893 140.207 63.8278C146.15 73.1393 148.362 86.4779 146.048 97.2614C144.259 105.601 139.975 113.556 133.637 119.312C131.937 120.856 130.263 122.051 128.347 123.291C130.717 124.807 133.921 127.341 135.999 129.178C138.318 131.29 141.05 134.056 141.707 137.202C142.021 138.678 141.728 140.217 140.895 141.475C137.983 145.797 128.586 146.532 123.782 146.8C114.882 147.3 105.696 146.798 96.8245 145.997C90.0795 145.4 83.3582 144.564 76.6732 143.489C66.2474 141.824 54.1411 139.493 45.0267 133.757C40.9006 131.16 38.7202 127.519 37.8114 122.774C37.2893 123.438 36.0826 124.66 35.4481 125.3C31.708 129.079 27.4632 132.919 22.7236 135.392C19.6062 137.018 16.0626 137.978 12.6309 136.842C9.49367 135.805 6.47212 133.757 4.95883 130.745C3.84317 128.518 3.67537 125.936 4.49359 123.583C5.70304 120.041 9.05597 117.025 12.3396 115.391C5.77342 112.632 -1.63316 107.898 0.317706 99.6073C0.98916 96.7536 2.57816 94.4256 5.09394 92.8815C5.03967 92.2126 5.06677 91.0754 5.06654 90.3865L5.0658 85.9375L5.06476 72.0487L5.06506 49.8289C5.06521 46.102 5.05949 42.3601 5.07263 38.6329C5.07382 38.3098 5.15296 37.3311 5.29608 37.0627C5.75553 36.201 6.48757 35.301 7.07759 34.5219L9.67228 31.0748L20.2661 16.9616L20.2633 7.36201C20.2627 5.75844 20.2244 4.1431 20.2989 2.54281C20.3667 1.08615 21.2212 0.276762 22.6331 0.0535277Z" fill="black"/>
<path d="M109.244 62.6355C119.201 56.3386 129.219 55.8798 136.127 66.9322C141.37 75.3211 143.122 86.8388 141.018 96.4508C140.652 98.081 140.182 99.6853 139.608 101.254C136.762 108.971 131.094 116.594 123.481 120.105C112.374 113.352 100.799 107.401 88.8448 102.295C82.0047 99.346 73.6695 96.0596 66.3653 94.6194C64.278 82.0662 69.316 59.3581 84.8316 58.1917C90.4186 57.7529 96.6032 61.0453 100.936 64.335C101.783 64.9782 102.566 65.6846 103.62 65.9483C103.162 67.6579 102.752 69.1278 102.208 70.8187C102.128 70.7923 102.048 70.7665 101.967 70.7415C100.049 70.13 98.2831 69.012 97.3359 67.1739C95.9291 68.0335 94.3219 68.9145 92.881 69.7442C94.2306 71.5496 94.6166 72.3532 96.6039 73.7481C99.3425 75.6745 102.734 76.4369 106.033 75.869C110.182 75.1326 112.574 73.0718 114.902 69.7567C113.423 68.8851 111.936 68.0264 110.442 67.1808C109.812 68.3296 108.923 69.1411 107.856 69.8698C108.612 67.0712 108.87 65.4555 109.244 62.6355Z" fill="#F96666"/>
<path d="M55.9365 98.649C56.2405 98.5948 57.5293 98.5792 57.8558 98.5866C63.0358 98.7039 68.625 100.246 73.5225 101.794C73.2701 102.637 73.0288 103.498 72.7905 104.346C70.9743 110.798 68.9827 117.221 67.208 123.684C68.4439 123.977 70.9014 124.664 72.0793 125.098C72.2167 124.436 72.5336 123.453 72.7289 122.779L73.9367 118.607C75.3799 113.627 76.9499 108.492 78.2951 103.499C83.0246 105.206 88.0727 107.423 92.6382 109.511C102 113.767 111.107 118.561 119.915 123.87C119.667 124.498 119.486 125.346 119.274 125.992C118.59 128.072 118.016 130.916 117.229 132.884C118.779 133.295 120.633 133.826 122.15 134.317C122.765 132.149 123.888 128.773 124.317 126.689C125.137 127.285 126.104 127.898 126.954 128.499C128.935 129.878 130.83 131.377 132.63 132.986C134.292 134.419 136.241 136.373 136.843 138.499C133.991 141.882 119.965 141.955 115.492 141.922C108.286 141.828 101.088 141.401 93.9217 140.642C94.7739 138.012 95.6566 134.776 96.3967 132.094C94.9721 131.76 92.9448 131.126 91.5187 130.687C91.3732 131.471 90.8565 133.071 90.6138 133.904L88.8135 140.076C77.6099 138.706 55.3482 135.72 46.6986 128.677C44.4288 126.828 43.1244 124.568 42.8407 121.639C42.3454 116.525 45.2843 106.304 48.5618 102.331C50.4988 99.9838 52.946 98.9415 55.9365 98.649Z" fill="#FC8620"/>
<path d="M26.176 78.2259C27.8607 78.0396 30.0571 78.289 31.4778 79.2919C36.0177 82.496 38.7925 94.3217 39.7294 99.5152C40.0313 101.189 40.6204 104.021 40.6311 105.627C40.6371 106.525 38.6853 113.028 38.2898 114.103C38.1416 114.505 37.9606 114.886 37.7124 115.237C37.0219 116.215 36.1337 117.117 35.3439 118.016C31.3665 122.551 22.8835 131.176 16.8185 132.19C14.8444 132.52 12.858 131.696 11.2788 130.542C10.1964 129.751 9.29395 128.549 9.09938 127.198C8.88877 125.737 9.48221 124.511 10.324 123.372C11.8941 121.282 14.5427 119.869 16.9159 118.794C18.0411 118.148 20.9863 117.664 21.6799 116.539C22.7532 114.797 21.6303 113.058 19.8662 112.549C15.9484 111.437 12.3444 110.075 8.9201 107.867C5.76293 105.83 3.70885 102.113 6.16773 98.6964C9.0636 94.6728 16.7056 96.2281 20.8604 97.1308C22.3879 97.4626 24.0827 98.2094 25.6583 98.1137C27.1701 97.9548 28.1757 96.0091 27.5055 94.6543C27.0901 93.7954 26.4262 93.2238 25.8668 92.4465C23.573 89.2596 20.2643 84.1128 22.5404 80.1887C23.2351 78.9905 24.8726 78.4479 26.176 78.2259Z" fill="#AEF326"/>
<path d="M10.1422 60.8697C14.5251 60.7902 19.079 60.8514 23.4722 60.8513L50.6929 60.8569L50.6842 94.6736C48.3513 95.5533 46.2983 97.0454 44.7406 98.9926C44.6429 98.182 44.3724 96.9652 44.2054 96.1479C43.5779 93.0315 42.7527 89.9581 41.7349 86.9471C41.0633 84.968 40.2407 83.0438 39.2744 81.1909C37.5756 78.0002 35.0661 74.7524 31.4635 73.7272C28.2068 72.8 24.6099 72.8052 21.5852 74.4377C19.4233 75.5846 17.8196 77.5608 17.141 79.9118C15.973 83.9146 17.3105 88.0555 19.2327 91.5906C16.9233 91.0167 12.4582 90.8208 10.1614 91.2023C10.0394 87.7882 10.1376 83.7528 10.1372 80.2867L10.1422 60.8697Z" fill="#F18787"/>
<path d="M55.7555 40.575L81.1037 40.5827C80.9961 42.5496 81.097 45.3495 81.0822 47.3771C81.0703 49.0775 80.999 52.0012 81.12 53.6299C79.4423 53.9898 77.5701 54.7276 76.0816 55.5794C68.6665 59.8226 64.7579 67.5906 62.5506 75.5134C61.1663 80.7841 60.2976 88.2374 61.1561 93.6589C59.1699 93.5742 57.743 93.4792 55.7512 93.5549L55.7555 40.575Z" fill="#E48789"/>
<path d="M10.1396 40.5874L36.0223 40.5773C40.8663 40.5775 45.8582 40.5119 50.6893 40.5992L50.6798 55.7913L10.1548 55.7863C10.0861 50.7585 10.1391 45.6232 10.1396 40.5874Z" fill="#FEFEFE"/>
<path d="M24.0904 20.2983C34.6923 20.4213 45.3301 20.226 55.9354 20.3072C58.3956 20.3259 60.9162 20.3477 63.374 20.3048C62.8885 20.865 62.1632 21.8955 61.6938 22.523L58.5414 26.7303L54.3589 32.298C53.5959 33.3136 52.6851 34.4706 51.9744 35.5074C47.3679 35.5585 42.6867 35.5153 38.0752 35.5152L12.6587 35.5131C13.2434 34.8001 13.8208 33.9991 14.3695 33.2555C17.573 28.9142 20.9018 24.6487 24.0904 20.2983Z" fill="#F18787"/>
<path d="M25.3259 5.10843C30.0242 5.02276 34.9631 5.10004 39.6754 5.10019L65.8931 5.1085C65.8437 8.42996 65.893 11.9135 65.9048 15.2458C61.4357 15.1925 56.859 15.2435 52.3826 15.2434L25.3342 15.2417L25.3259 5.10843Z" fill="#FEFEFE"/>
<path d="M68.3697 22.0516C68.6906 22.1963 77.3866 34.059 78.5484 35.4556C77.4527 35.5564 75.8833 35.5156 74.7638 35.5161L68.5503 35.5156L58.2938 35.5118C61.5916 31.1287 65.1896 26.4802 68.3697 22.0516Z" fill="#FEFEFE"/>
<path d="M116.82 30.501C119.683 30.2115 122.968 31.1951 125.269 32.9345C126.633 33.9661 128.668 35.9724 129.011 37.737C129.213 38.7745 128.248 40.1542 127.589 40.9372C125.164 43.8144 122.39 45.2019 118.714 45.5929C115.542 45.8468 112.392 44.8916 109.894 42.919C108.705 41.9787 106.653 39.8748 106.458 38.2728C106.317 37.1125 107.379 35.7519 108.108 34.9054C110.398 32.2449 113.341 30.7936 116.82 30.501Z" fill="black"/>
<path d="M116.717 35.6182C119.357 35.204 121.551 36.2488 123.413 38.0386C122.057 39.4727 120.722 40.157 118.793 40.484C116.063 40.7473 113.97 40.0494 112.071 38.0343C113.441 36.6753 114.793 35.8839 116.717 35.6182Z" fill="#FEFEFE"/>
</svg>
