<svg width="177" height="203" viewBox="0 0 177 203" fill="none" xmlns="http://www.w3.org/2000/svg">
<path d="M154.429 81.3468C154.466 79.2338 154.422 76.9838 154.217 74.8363C154.022 72.7879 153.674 70.736 153.07 68.9467C152.48 67.2003 151.549 65.4128 149.99 64.2453C148.362 63.0266 146.63 62.4772 144.902 62.5063C143.217 62.5347 141.72 63.1078 140.494 63.826C138.705 64.8734 137.259 66.3653 136.287 67.5391L110.354 50.6984L109.871 35.7685L109.856 35.5414C109.746 34.4096 109.088 33.3705 108.036 32.8086C106.496 31.9853 101.255 29.2591 97.2292 28.2332C94.0922 27.4339 90.4922 26.6593 87.4884 26.0481C90.7315 24.2975 94.6182 22.4565 97.747 21.6784C100.034 21.1096 103.352 21.0031 106.629 21.1199C111.797 21.3042 116.803 23.2512 121.353 26.2061L151.149 45.5557C150.847 46.8472 150.573 48.691 150.808 50.6524C151.128 53.3152 152.415 56.2785 155.765 58.1643C157.249 59.0001 158.955 59.2449 160.553 59.2283C162.172 59.2114 163.874 58.9238 165.508 58.5174C167.11 58.1191 168.722 57.5856 170.229 57.0171L154.429 81.3468Z" fill="#A2A2A2" stroke="black" stroke-width="5"/>
<rect x="116.522" y="55.9657" width="14.7072" height="65.946" transform="rotate(33 116.522 55.9657)" fill="#656565" stroke="black" stroke-width="5"/>
<rect x="76.7234" y="110.014" width="22.5901" height="73.8288" rx="5.5" transform="rotate(33 76.7234 110.014)" fill="#419356" stroke="black" stroke-width="5"/>
<path d="M149.895 123.798L150.229 132.83L142.914 127.354L126.251 95.6924L133.207 92.1123L149.895 123.798Z" fill="#656565" stroke="black" stroke-width="4"/>
<path d="M112.676 150.758L112.341 159.79L119.656 154.314L136.319 122.653L129.363 119.073L112.676 150.758Z" fill="#656565" stroke="black" stroke-width="4"/>
</svg>
