<svg width="75" height="66" viewBox="0 0 75 66" fill="none" xmlns="http://www.w3.org/2000/svg">
<path d="M18.126 60.2178C16.4189 60.2178 15.0488 59.6562 14.0156 58.5332C12.9824 57.4326 12.4658 55.9614 12.4658 54.1196V-5.14355C12.4658 -8.7373 13.4204 -11.4888 15.3296 -13.3979C17.2612 -15.3296 20.0127 -16.2954 23.584 -16.2954H51.1436C54.6924 -16.2954 57.4214 -15.3296 59.3306 -13.3979C61.2622 -11.4888 62.228 -8.7373 62.228 -5.14355V54.1196C62.228 55.9614 61.7114 57.4326 60.6782 58.5332C59.645 59.6562 58.2749 60.2178 56.5679 60.2178C55.4897 60.2178 54.5239 59.9482 53.6704 59.4092C52.8169 58.8701 51.7163 57.9492 50.3687 56.6465L37.6333 43.9448C37.4536 43.7651 37.2739 43.7651 37.0942 43.9448L24.3589 56.6465C23.0337 57.9492 21.9219 58.8701 21.0234 59.4092C20.1475 59.9482 19.1816 60.2178 18.126 60.2178Z" fill="#749BFF"/>
<path d="M39.5547 25.7344C38.6719 25.7344 37.8672 25.5195 37.1406 25.0898C36.4141 24.6602 35.8359 24.082 35.4062 23.3555C34.9766 22.6289 34.7617 21.8242 34.7617 20.9414C34.7617 20.0508 34.9766 19.2461 35.4062 18.5273C35.8359 17.8008 36.4141 17.2227 37.1406 16.793C37.8672 16.3555 38.6719 16.1367 39.5547 16.1367C40.4375 16.1367 41.2422 16.3555 41.9688 16.793C42.6953 17.2227 43.2734 17.8008 43.7031 18.5273C44.1406 19.2461 44.3594 20.0508 44.3594 20.9414C44.3594 21.832 44.1406 22.6406 43.7031 23.3672C43.2734 24.0859 42.6953 24.6602 41.9688 25.0898C41.2422 25.5195 40.4375 25.7344 39.5547 25.7344ZM28.4336 22.7695C27.8086 22.7695 27.2344 22.6172 26.7109 22.3125C26.1875 22 25.7695 21.582 25.457 21.0586C25.1445 20.5352 24.9883 19.957 24.9883 19.3242C24.9883 18.6992 25.1445 18.1289 25.457 17.6133C25.7695 17.0898 26.1875 16.6719 26.7109 16.3594C27.2344 16.0469 27.8086 15.8906 28.4336 15.8906C29.0586 15.8906 29.6328 16.0469 30.1562 16.3594C30.6797 16.6719 31.0977 17.0898 31.4102 17.6133C31.7227 18.1289 31.8789 18.6992 31.8789 19.3242C31.8789 19.957 31.7227 20.5352 31.4102 21.0586C31.0977 21.5742 30.6797 21.9883 30.1562 22.3008C29.6328 22.6133 29.0586 22.7695 28.4336 22.7695ZM33.0977 33.5859C32.4258 33.5859 31.8086 33.418 31.2461 33.082C30.6914 32.7461 30.2461 32.2969 29.9102 31.7344C29.582 31.1797 29.418 30.5664 29.418 29.8945C29.418 29.2227 29.582 28.6094 29.9102 28.0547C30.2461 27.5 30.6914 27.0586 31.2461 26.7305C31.8086 26.3945 32.4258 26.2266 33.0977 26.2266C33.7695 26.2266 34.3828 26.3945 34.9375 26.7305C35.4922 27.0586 35.9336 27.5 36.2617 28.0547C36.5977 28.6094 36.7656 29.2227 36.7656 29.8945C36.7656 30.5664 36.5977 31.1797 36.2617 31.7344C35.9336 32.2969 35.4922 32.7461 34.9375 33.082C34.3828 33.418 33.7695 33.5859 33.0977 33.5859ZM46.082 34.0312C45.8789 34.0312 45.707 33.9648 45.5664 33.832C45.4336 33.707 45.3594 33.543 45.3438 33.3398C45.2656 32.6602 45.1875 32.1328 45.1094 31.7578C45.0312 31.3828 44.8945 31.0977 44.6992 30.9023C44.5117 30.7148 44.2188 30.5742 43.8203 30.4805C43.4297 30.3867 42.8789 30.2852 42.168 30.1758C41.957 30.1367 41.7891 30.0508 41.6641 29.918C41.5391 29.7852 41.4766 29.6211 41.4766 29.4258C41.4766 29.2539 41.5352 29.0977 41.6523 28.957C41.7695 28.8164 41.9219 28.7305 42.1094 28.6992C42.8594 28.5586 43.4375 28.4336 43.8438 28.3242C44.25 28.2148 44.5469 28.0703 44.7344 27.8906C44.9219 27.7031 45.0508 27.4258 45.1211 27.0586C45.1914 26.6914 45.2656 26.1836 45.3438 25.5352C45.3594 25.332 45.4336 25.1641 45.5664 25.0312C45.707 24.8984 45.8789 24.832 46.082 24.832C46.2852 24.832 46.457 24.8984 46.5977 25.0312C46.7383 25.1562 46.8164 25.3203 46.832 25.5234C46.918 26.2109 47 26.75 47.0781 27.1406C47.1562 27.5234 47.2891 27.8125 47.4766 28.0078C47.6719 28.1953 47.9688 28.332 48.3672 28.418C48.7656 28.5039 49.3203 28.5938 50.0312 28.6875C50.2266 28.7188 50.3867 28.8008 50.5117 28.9336C50.6367 29.0664 50.6992 29.2305 50.6992 29.4258C50.6992 29.6133 50.6367 29.7773 50.5117 29.918C50.3945 30.0508 50.2422 30.1328 50.0547 30.1641C49.3125 30.3047 48.7383 30.4297 48.332 30.5391C47.9336 30.6484 47.6406 30.7969 47.4531 30.9844C47.2734 31.1719 47.1445 31.4492 47.0664 31.8164C46.9961 32.1914 46.918 32.7109 46.832 33.375C46.8086 33.5703 46.7266 33.7266 46.5859 33.8438C46.4453 33.9688 46.2773 34.0312 46.082 34.0312ZM33.1094 15.9375C32.9453 15.9375 32.8047 15.8906 32.6875 15.7969C32.5781 15.6953 32.5078 15.5664 32.4766 15.4102C32.3828 14.9102 32.3008 14.5234 32.2305 14.25C32.1602 13.9766 32.0625 13.7773 31.9375 13.6523C31.8125 13.5273 31.6133 13.4336 31.3398 13.3711C31.0742 13.3008 30.6914 13.2148 30.1914 13.1133C30.0273 13.0898 29.8945 13.0195 29.793 12.9023C29.6992 12.7852 29.6523 12.6445 29.6523 12.4805C29.6523 12.332 29.6992 12.1992 29.793 12.082C29.8945 11.957 30.0273 11.8828 30.1914 11.8594C30.6914 11.7578 31.0742 11.6758 31.3398 11.6133C31.6133 11.5508 31.8125 11.457 31.9375 11.332C32.0625 11.1992 32.1602 11 32.2305 10.7344C32.3008 10.4609 32.3828 10.0781 32.4766 9.58594C32.5078 9.42188 32.5781 9.28906 32.6875 9.1875C32.8047 9.08594 32.9453 9.03516 33.1094 9.03516C33.2656 9.03516 33.3984 9.08594 33.5078 9.1875C33.625 9.28906 33.6992 9.42188 33.7305 9.58594C33.8242 10.0781 33.9023 10.4609 33.9648 10.7344C34.0352 11 34.1328 11.1953 34.2578 11.3203C34.3906 11.4453 34.5898 11.543 34.8555 11.6133C35.1211 11.6758 35.5039 11.7578 36.0039 11.8594C36.1758 11.8828 36.3086 11.957 36.4023 12.082C36.5039 12.1992 36.5547 12.332 36.5547 12.4805C36.5547 12.6445 36.5039 12.7852 36.4023 12.9023C36.3086 13.0195 36.1758 13.0898 36.0039 13.1133C35.5039 13.2148 35.1211 13.3008 34.8555 13.3711C34.5898 13.4336 34.3906 13.5273 34.2578 13.6523C34.1328 13.7773 34.0352 13.9766 33.9648 14.25C33.9023 14.5234 33.8242 14.9102 33.7305 15.4102C33.6992 15.5664 33.625 15.6953 33.5078 15.7969C33.3984 15.8906 33.2656 15.9375 33.1094 15.9375ZM50.2891 16.2891C50.2891 17.2109 50.0938 18.0664 49.7031 18.8555C49.3203 19.6445 48.793 20.3125 48.1211 20.8594C47.4492 21.4062 46.6875 21.7852 45.8359 21.9961C45.8672 21.8242 45.8867 21.6523 45.8945 21.4805C45.9102 21.3008 45.918 21.1211 45.918 20.9414C45.918 20.0586 45.7539 19.2344 45.4258 18.4688C45.0977 17.6953 44.6406 17.0195 44.0547 16.4414C43.4688 15.8555 42.793 15.3984 42.0273 15.0703C41.2617 14.7422 40.4375 14.5781 39.5547 14.5781C39.2656 14.5781 38.9766 14.5977 38.6875 14.6367C38.9219 13.8164 39.3125 13.082 39.8594 12.4336C40.4141 11.7852 41.0781 11.2773 41.8516 10.9102C42.625 10.543 43.457 10.3594 44.3477 10.3594C45.4414 10.3594 46.4375 10.6289 47.3359 11.168C48.2422 11.6992 48.9609 12.4141 49.4922 13.3125C50.0234 14.2109 50.2891 15.2031 50.2891 16.2891Z" fill="#133BA1"/>
</svg>
