<svg width="92" height="126" viewBox="0 0 92 126" fill="none" xmlns="http://www.w3.org/2000/svg">
<path d="M0 45.6659C0 39.3365 1.17733 33.4224 3.53198 27.9236C5.91535 22.3962 9.18889 17.5418 13.3526 13.3604C17.545 9.179 22.3979 5.91408 27.9113 3.56563C33.4246 1.18854 39.3399 0 45.6573 0C51.9747 0 57.89 1.18854 63.4034 3.56563C68.9167 5.91408 73.7696 9.179 77.962 13.3604C82.1544 17.5418 85.428 22.3962 87.7826 27.9236C90.1373 33.4224 91.3146 39.3365 91.3146 45.6659C91.2859 52.3103 89.9506 58.5251 87.3088 64.3103C84.667 70.0668 81.0776 75.0215 76.5406 79.1742V120.415C76.5406 122.334 76.0524 123.737 75.0761 124.625C74.0998 125.542 72.8938 126 71.458 126C70.3955 126 69.4336 125.757 68.5721 125.27C67.7394 124.783 66.9066 124.11 66.0739 123.251L48.3709 105.723C47.8827 105.265 47.452 104.936 47.0787 104.735C46.7054 104.535 46.3465 104.434 46.0019 104.434C45.6573 104.434 45.2984 104.535 44.9251 104.735C44.5518 104.936 44.121 105.265 43.6329 105.723L25.973 123.251C25.1115 124.081 24.2644 124.74 23.4317 125.227C22.5989 125.742 21.637 126 20.5458 126C19.1387 126 17.9327 125.542 16.9277 124.625C15.9513 123.737 15.4632 122.334 15.4632 120.415L15.4201 79.8616C10.7108 75.6802 6.96346 70.6396 4.17807 64.7399C1.39269 58.8401 0 52.4821 0 45.6659ZM11.0267 45.6659C11.0267 50.506 11.9025 55.031 13.6541 59.2411C15.4345 63.4224 17.904 67.1026 21.0627 70.2816C24.2213 73.4606 27.8969 75.9666 32.0893 77.7995C36.3105 79.6038 40.8475 80.506 45.7004 80.506C50.5245 80.506 55.0472 79.6038 59.2683 77.7995C63.4895 75.9952 67.1794 73.5036 70.3381 70.3246C73.4968 67.117 75.9663 63.4224 77.7466 59.2411C79.527 55.031 80.4028 50.506 80.3741 45.6659C80.3741 40.8544 79.4839 36.3437 77.7036 32.1337C75.9232 27.895 73.4537 24.1862 70.295 21.0072C67.1363 17.8282 63.4464 15.3508 59.2253 13.5752C55.0328 11.7709 50.5245 10.8687 45.7004 10.8687C40.8475 10.8687 36.3105 11.7709 32.0893 13.5752C27.8969 15.3508 24.2213 17.8282 21.0627 21.0072C17.904 24.1862 15.4345 27.895 13.6541 32.1337C11.9025 36.3437 11.0267 40.8544 11.0267 45.6659Z" fill="#F7DA58"/>
<rect x="15.3145" y="16" width="59.6377" height="58.5356" rx="29.2678" fill="#8A2424"/>
<path d="M47.771 51.7446C46.41 51.7446 45.1694 51.4134 44.0493 50.751C42.9292 50.0885 42.0379 49.1973 41.3755 48.0771C40.7131 46.957 40.3818 45.7165 40.3818 44.3555C40.3818 42.9824 40.7131 41.7419 41.3755 40.6338C42.0379 39.5137 42.9292 38.6224 44.0493 37.96C45.1694 37.2855 46.41 36.9482 47.771 36.9482C49.132 36.9482 50.3726 37.2855 51.4927 37.96C52.6128 38.6224 53.5041 39.5137 54.1665 40.6338C54.841 41.7419 55.1782 42.9824 55.1782 44.3555C55.1782 45.7285 54.841 46.9751 54.1665 48.0952C53.5041 49.2033 52.6128 50.0885 51.4927 50.751C50.3726 51.4134 49.132 51.7446 47.771 51.7446ZM30.626 47.1738C29.6624 47.1738 28.7772 46.939 27.9702 46.4692C27.1632 45.9875 26.5189 45.3431 26.0371 44.5361C25.5553 43.7292 25.3145 42.8379 25.3145 41.8623C25.3145 40.8988 25.5553 40.0195 26.0371 39.2246C26.5189 38.4176 27.1632 37.7733 27.9702 37.2915C28.7772 36.8097 29.6624 36.5688 30.626 36.5688C31.5895 36.5688 32.4748 36.8097 33.2817 37.2915C34.0887 37.7733 34.7331 38.4176 35.2148 39.2246C35.6966 40.0195 35.9375 40.8988 35.9375 41.8623C35.9375 42.8379 35.6966 43.7292 35.2148 44.5361C34.7331 45.3311 34.0887 45.9694 33.2817 46.4512C32.4748 46.9329 31.5895 47.1738 30.626 47.1738ZM37.8164 63.8491C36.7806 63.8491 35.8291 63.5902 34.9619 63.0723C34.1068 62.5544 33.4202 61.8618 32.9023 60.9946C32.3965 60.1395 32.1436 59.194 32.1436 58.1582C32.1436 57.1224 32.3965 56.1769 32.9023 55.3218C33.4202 54.4666 34.1068 53.7861 34.9619 53.2803C35.8291 52.7624 36.7806 52.5034 37.8164 52.5034C38.8522 52.5034 39.7977 52.7624 40.6528 53.2803C41.508 53.7861 42.1885 54.4666 42.6943 55.3218C43.2122 56.1769 43.4712 57.1224 43.4712 58.1582C43.4712 59.194 43.2122 60.1395 42.6943 60.9946C42.1885 61.8618 41.508 62.5544 40.6528 63.0723C39.7977 63.5902 38.8522 63.8491 37.8164 63.8491ZM57.834 64.5356C57.5208 64.5356 57.2559 64.4333 57.0391 64.2285C56.8343 64.0358 56.7199 63.7829 56.6958 63.4697C56.5754 62.4219 56.4549 61.6089 56.3345 61.0308C56.214 60.4526 56.0033 60.013 55.7021 59.7119C55.4131 59.4229 54.9614 59.2061 54.3472 59.0615C53.745 58.917 52.8958 58.7604 51.7998 58.5918C51.4746 58.5316 51.2157 58.3991 51.0229 58.1943C50.8302 57.9896 50.7339 57.7367 50.7339 57.4355C50.7339 57.1706 50.8242 56.9297 51.0049 56.7129C51.1855 56.4961 51.4204 56.3636 51.7095 56.3154C52.8657 56.0986 53.757 55.9059 54.3833 55.7373C55.0096 55.5687 55.4673 55.3459 55.7563 55.0688C56.0454 54.7798 56.2441 54.3522 56.3525 53.7861C56.4609 53.2201 56.5754 52.4372 56.6958 51.4375C56.7199 51.1243 56.8343 50.8654 57.0391 50.6606C57.2559 50.4559 57.5208 50.3535 57.834 50.3535C58.1471 50.3535 58.4121 50.4559 58.6289 50.6606C58.8457 50.8534 58.9661 51.1063 58.9902 51.4194C59.1227 52.4793 59.2492 53.3104 59.3696 53.9126C59.4901 54.5028 59.6948 54.9484 59.9839 55.2495C60.285 55.5386 60.7427 55.7493 61.3569 55.8818C61.9712 56.0143 62.8263 56.1528 63.9224 56.2974C64.2235 56.3455 64.4704 56.472 64.6631 56.6768C64.8558 56.8815 64.9521 57.1344 64.9521 57.4355C64.9521 57.7246 64.8558 57.9775 64.6631 58.1943C64.4824 58.3991 64.2476 58.5256 63.9585 58.5737C62.8143 58.7905 61.929 58.9832 61.3027 59.1519C60.6885 59.3205 60.2368 59.5493 59.9478 59.8384C59.6707 60.1274 59.472 60.555 59.3516 61.1211C59.2432 61.6992 59.1227 62.5002 58.9902 63.5239C58.9541 63.825 58.8276 64.0659 58.6108 64.2466C58.394 64.4393 58.1351 64.5356 57.834 64.5356ZM37.8345 36.6411C37.5815 36.6411 37.3647 36.5688 37.1841 36.4243C37.0155 36.2677 36.9071 36.069 36.8589 35.8281C36.7144 35.0573 36.5879 34.4611 36.4795 34.0396C36.3711 33.618 36.2205 33.3109 36.0278 33.1182C35.8351 32.9255 35.528 32.7809 35.1064 32.6846C34.6969 32.5762 34.1068 32.4437 33.3359 32.2871C33.083 32.251 32.8783 32.1426 32.7217 31.9619C32.5771 31.7812 32.5049 31.5645 32.5049 31.3115C32.5049 31.0827 32.5771 30.8779 32.7217 30.6973C32.8783 30.5046 33.083 30.3901 33.3359 30.354C34.1068 30.1974 34.6969 30.071 35.1064 29.9746C35.528 29.8783 35.8351 29.7337 36.0278 29.541C36.2205 29.3363 36.3711 29.0291 36.4795 28.6196C36.5879 28.1981 36.7144 27.6079 36.8589 26.8491C36.9071 26.5962 37.0155 26.3914 37.1841 26.2349C37.3647 26.0783 37.5815 26 37.8345 26C38.0754 26 38.2801 26.0783 38.4487 26.2349C38.6294 26.3914 38.7438 26.5962 38.792 26.8491C38.9365 27.6079 39.057 28.1981 39.1533 28.6196C39.2617 29.0291 39.4123 29.3302 39.605 29.5229C39.8097 29.7157 40.1169 29.8662 40.5264 29.9746C40.9359 30.071 41.526 30.1974 42.2969 30.354C42.5618 30.3901 42.7666 30.5046 42.9111 30.6973C43.0677 30.8779 43.146 31.0827 43.146 31.3115C43.146 31.5645 43.0677 31.7812 42.9111 31.9619C42.7666 32.1426 42.5618 32.251 42.2969 32.2871C41.526 32.4437 40.9359 32.5762 40.5264 32.6846C40.1169 32.7809 39.8097 32.9255 39.605 33.1182C39.4123 33.3109 39.2617 33.618 39.1533 34.0396C39.057 34.4611 38.9365 35.0573 38.792 35.8281C38.7438 36.069 38.6294 36.2677 38.4487 36.4243C38.2801 36.5688 38.0754 36.6411 37.8345 36.6411ZM64.3198 37.1831C64.3198 38.6043 64.0187 39.9232 63.4165 41.1396C62.8263 42.3561 62.0133 43.3859 60.9775 44.229C59.9417 45.0721 58.7674 45.6562 57.4546 45.9814C57.5028 45.7165 57.5329 45.4515 57.5449 45.1865C57.569 44.9095 57.5811 44.6325 57.5811 44.3555C57.5811 42.9945 57.3281 41.7238 56.8223 40.5435C56.3164 39.3511 55.6118 38.3092 54.7085 37.418C53.8052 36.5146 52.7633 35.8101 51.583 35.3042C50.4027 34.7983 49.132 34.5454 47.771 34.5454C47.3254 34.5454 46.8797 34.5755 46.4341 34.6357C46.7954 33.3711 47.3976 32.2389 48.2407 31.2393C49.0959 30.2396 50.1196 29.4567 51.312 28.8906C52.5044 28.3245 53.7871 28.0415 55.1602 28.0415C56.8464 28.0415 58.382 28.457 59.7671 29.2881C61.1642 30.1071 62.2723 31.2091 63.0913 32.5942C63.9103 33.9793 64.3198 35.509 64.3198 37.1831Z" fill="#F7DA58"/>
</svg>
