<svg width="119" height="141" viewBox="0 0 119 141" fill="none" xmlns="http://www.w3.org/2000/svg">
<path d="M81.1853 18.8439L100.74 31.942C100.565 32.9071 100.449 34.1714 100.652 35.5064C100.95 37.4729 101.959 39.6348 104.351 41.0236C106.339 42.1782 108.813 41.942 110.684 41.5435C111.304 41.4115 111.928 41.242 112.544 41.0539L104.584 53.6962C104.547 52.7613 104.478 51.8233 104.364 50.9196C104.202 49.6345 103.941 48.3274 103.509 47.1605C103.088 46.0218 102.42 44.784 101.303 43.9212C100.141 43.0238 98.8762 42.5707 97.5887 42.5462C96.3356 42.5224 95.2304 42.9068 94.3365 43.3968C93.1504 44.0471 92.1748 44.9756 91.4622 45.7835L74.9663 34.7343L74.6602 24.9935L74.6455 24.7604C74.5421 23.6796 73.9584 22.6767 73.0237 22.0798L72.8177 21.9582C71.6363 21.3135 68.2324 19.5133 65.5396 18.8056C64.1351 18.4365 62.5962 18.0771 61.1299 17.7518C62.785 16.9171 64.4988 16.1758 65.9359 15.8072C67.3613 15.4417 69.4986 15.3628 71.6882 15.4433C74.9746 15.5643 78.2059 16.8482 81.1853 18.8439Z" fill="#A2A2A2" stroke="black" stroke-width="5"/>
<rect x="0.745083" y="3.50688" width="8.37434" height="43.7574" transform="matrix(0.830839 0.556513 -0.532806 0.846238 79.84 36.5357)" fill="#656565" stroke="black" stroke-width="5"/>
<rect x="0.745083" y="3.50688" width="13.7241" height="49.1749" rx="5.5" transform="matrix(0.830839 0.556513 -0.532806 0.846238 53.0826 74.0152)" fill="#419356" stroke="black" stroke-width="5"/>
<path d="M100.125 85.9941L100.297 90.7725L96.6108 87.9258L85.7348 66.6094L89.269 64.7324L100.125 85.9941Z" fill="#656565" stroke="black" stroke-width="4"/>
<path d="M76.4046 104.689L76.2327 109.468L79.9192 106.621L90.7952 85.3047L87.261 83.4277L76.4046 104.689Z" fill="#656565" stroke="black" stroke-width="4"/>
</svg>
