<svg width="92" height="126" viewBox="0 0 92 126" fill="none" xmlns="http://www.w3.org/2000/svg">
<path d="M0 45.6659C0 39.3365 1.17733 33.4224 3.53198 27.9236C5.91535 22.3962 9.18889 17.5418 13.3526 13.3604C17.545 9.179 22.3979 5.91408 27.9113 3.56563C33.4246 1.18854 39.3399 0 45.6573 0C51.9747 0 57.89 1.18854 63.4034 3.56563C68.9167 5.91408 73.7696 9.179 77.962 13.3604C82.1544 17.5418 85.428 22.3962 87.7826 27.9236C90.1373 33.4224 91.3146 39.3365 91.3146 45.6659C91.2859 52.3103 89.9506 58.5251 87.3088 64.3103C84.667 70.0668 81.0776 75.0215 76.5406 79.1742V120.415C76.5406 122.334 76.0524 123.737 75.0761 124.625C74.0998 125.542 72.8938 126 71.458 126C70.3955 126 69.4336 125.757 68.5721 125.27C67.7394 124.783 66.9066 124.11 66.0739 123.251L48.3709 105.723C47.8827 105.265 47.452 104.936 47.0787 104.735C46.7054 104.535 46.3465 104.434 46.0019 104.434C45.6573 104.434 45.2984 104.535 44.9251 104.735C44.5518 104.936 44.121 105.265 43.6329 105.723L25.973 123.251C25.1115 124.081 24.2644 124.74 23.4317 125.227C22.5989 125.742 21.637 126 20.5458 126C19.1387 126 17.9327 125.542 16.9277 124.625C15.9513 123.737 15.4632 122.334 15.4632 120.415L15.4201 79.8616C10.7108 75.6802 6.96346 70.6396 4.17807 64.7399C1.39269 58.8401 0 52.4821 0 45.6659ZM11.0267 45.6659C11.0267 50.506 11.9025 55.031 13.6541 59.2411C15.4345 63.4224 17.904 67.1026 21.0627 70.2816C24.2213 73.4606 27.8969 75.9666 32.0893 77.7995C36.3105 79.6038 40.8475 80.506 45.7004 80.506C50.5245 80.506 55.0472 79.6038 59.2683 77.7995C63.4895 75.9952 67.1794 73.5036 70.3381 70.3246C73.4968 67.117 75.9663 63.4224 77.7466 59.2411C79.527 55.031 80.4028 50.506 80.3741 45.6659C80.3741 40.8544 79.4839 36.3437 77.7036 32.1337C75.9232 27.895 73.4537 24.1862 70.295 21.0072C67.1363 17.8282 63.4464 15.3508 59.2253 13.5752C55.0328 11.7709 50.5245 10.8687 45.7004 10.8687C40.8475 10.8687 36.3105 11.7709 32.0893 13.5752C27.8969 15.3508 24.2213 17.8282 21.0627 21.0072C17.904 24.1862 15.4345 27.895 13.6541 32.1337C11.9025 36.3437 11.0267 40.8544 11.0267 45.6659Z" fill="#F7DA58"/>
<rect x="15.3145" y="16" width="59.6377" height="58.5356" rx="29.2678" fill="#8A2424"/>
<path d="M37.269 49.0754L28.6558 40.4622C27.4741 39.2805 26.8784 38.0793 26.8687 36.8586C26.8589 35.6379 27.4253 34.4514 28.5679 33.2991L30.8384 31.0139C31.981 29.8713 33.1675 29.3098 34.3979 29.3293C35.6382 29.3391 36.8442 29.9299 38.0161 31.1018L47.3618 40.5061L37.269 49.0754ZM37.269 43.0256C37.4351 43.2014 37.6353 43.2893 37.8696 43.2893C38.1138 43.2893 38.3237 43.2063 38.4995 43.0403C38.6655 42.8743 38.7485 42.6741 38.7485 42.4397C38.7583 42.2053 38.6802 42.0002 38.5142 41.8245L33.1968 36.5071C33.0405 36.3411 32.8452 36.2581 32.6108 36.2581C32.3765 36.2581 32.1714 36.3362 31.9956 36.4924C31.8198 36.6682 31.7271 36.8782 31.7173 37.1223C31.7173 37.3665 31.8052 37.5764 31.981 37.7522L37.269 43.0256ZM39.3491 40.9602C39.5151 41.136 39.7202 41.219 39.9644 41.2092C40.2183 41.1995 40.4233 41.1213 40.5796 40.9749C40.7554 40.7991 40.8433 40.5891 40.8433 40.345C40.8433 40.1008 40.7603 39.8909 40.5942 39.7151L35.2915 34.427C35.1255 34.261 34.9253 34.178 34.6909 34.178C34.4565 34.178 34.2563 34.2561 34.0903 34.4124C33.9146 34.5784 33.8267 34.7834 33.8267 35.0276C33.8267 35.2717 33.9097 35.4817 34.0757 35.6575L39.3491 40.9602ZM58.0991 62.9475C57.8843 63.1624 57.6401 63.2649 57.3667 63.2551C57.103 63.2551 56.8345 63.1721 56.561 63.0061L51.8735 60.2229C51.6001 60.0569 51.3755 59.842 51.1997 59.5784C51.0337 59.3147 50.936 59.0413 50.9067 58.7581L50.7896 57.4397L43.8608 50.511L47.9624 46.2336L54.979 53.2502L56.2827 53.3674C56.9272 53.426 57.4253 53.7483 57.7769 54.3342L60.5454 58.9924C60.7114 59.2756 60.7944 59.5491 60.7944 59.8127C60.8042 60.0862 60.7114 60.3254 60.5161 60.5305L58.0991 62.9475ZM29.7983 61.3362C28.8999 60.4377 28.3042 59.4563 28.0112 58.3918C27.728 57.3274 27.7378 56.2776 28.0405 55.2424C28.3433 54.1975 28.9194 53.2502 29.769 52.4006C30.2866 51.8831 30.853 51.4192 31.4683 51.009C32.0933 50.5891 32.7769 50.1594 33.519 49.72C34.2612 49.2805 35.0767 48.7874 35.9653 48.2405C36.8638 47.6838 37.8403 47.0247 38.895 46.2629C39.9497 45.4915 41.0972 44.5637 42.3374 43.4797C43.5874 42.386 44.9399 41.0823 46.395 39.5686L48.3726 41.5461C46.6733 43.2454 45.1597 44.676 43.8315 45.8381C42.5034 46.9905 41.3169 47.9475 40.272 48.7092C39.2368 49.4709 38.314 50.1057 37.5034 50.6135C36.6929 51.1213 35.9556 51.5657 35.2915 51.9465C34.6372 52.3274 34.0317 52.7131 33.4751 53.1038C32.9185 53.4846 32.3667 53.9436 31.8198 54.4807C31.1362 55.1643 30.7798 55.9407 30.7505 56.8098C30.7212 57.679 31.0874 58.5042 31.8491 59.2854C32.6206 60.0374 33.4409 60.3987 34.3101 60.3694C35.1792 60.3401 35.9604 59.9788 36.6538 59.2854C37.1909 58.7483 37.6499 58.2014 38.0308 57.6448C38.4214 57.0881 38.8071 56.4827 39.188 55.8284C39.5688 55.1741 40.0083 54.4417 40.5063 53.6311C41.0142 52.8108 41.6489 51.8831 42.4106 50.8479C43.1821 49.803 44.144 48.6165 45.2964 47.2883C46.4487 45.9504 47.8745 44.4368 49.5737 42.7473L51.5513 44.7249C50.0669 46.1506 48.7876 47.4836 47.7134 48.7239C46.6392 49.9543 45.7163 51.0969 44.9448 52.1516C44.1733 53.2063 43.5044 54.1829 42.938 55.0813C42.3813 55.9797 41.8784 56.8049 41.4292 57.5569C40.9897 58.3186 40.5552 59.012 40.1255 59.637C39.6958 60.262 39.2222 60.8333 38.7046 61.3508C37.8647 62.2102 36.9224 62.7864 35.8774 63.0793C34.8325 63.3821 33.7827 63.387 32.728 63.094C31.6733 62.8108 30.6968 62.2249 29.7983 61.3362ZM47.6841 43.4358C46.8149 42.5667 46.1558 41.5901 45.7065 40.5061C45.2573 39.4221 45.0181 38.3137 44.9888 37.1809C44.9692 36.0481 45.1646 34.9495 45.5747 33.885C45.9849 32.8206 46.6099 31.8684 47.4497 31.0286C48.4067 30.0715 49.5151 29.3977 50.7749 29.0071C52.0347 28.6067 53.3335 28.5042 54.6714 28.6995C56.019 28.885 57.2788 29.3782 58.4507 30.179L56.3853 32.2444C55.2427 31.5901 54.0269 31.3362 52.7378 31.4827C51.4487 31.6292 50.355 32.1516 49.4565 33.05C48.7046 33.7922 48.2114 34.6663 47.9771 35.6721C47.7524 36.678 47.7817 37.6887 48.0649 38.7043C48.3579 39.72 48.9048 40.6282 49.7056 41.429C50.4966 42.22 51.3999 42.762 52.4155 43.0549C53.4409 43.3479 54.4517 43.3821 55.4478 43.1575C56.4536 42.9231 57.3325 42.4348 58.0845 41.6926C58.6802 41.0969 59.1099 40.4084 59.3735 39.6272C59.647 38.8362 59.7446 38.0159 59.6665 37.1663C59.5884 36.3167 59.3296 35.5012 58.8901 34.72L60.9409 32.6545C61.7515 33.8362 62.2495 35.1008 62.4351 36.4485C62.6304 37.7864 62.5278 39.0901 62.1274 40.3596C61.7368 41.6292 61.063 42.7424 60.106 43.6995C59.2661 44.5393 58.314 45.1643 57.2495 45.5745C56.1851 45.9749 55.0815 46.1653 53.939 46.1458C52.8062 46.1165 51.6978 45.8772 50.6138 45.428C49.5298 44.9788 48.5532 44.3147 47.6841 43.4358ZM52.2837 36.8C51.7173 36.2336 51.4243 35.6233 51.4048 34.969C51.395 34.3049 51.6636 33.6995 52.2104 33.1526L55.4771 29.8713L57.1323 31.512L54.3638 34.2659C54.0317 34.6077 54.0464 34.9641 54.4077 35.3352L55.8286 36.7561C56.1704 37.0881 56.5122 37.0833 56.854 36.7415L59.6079 34.0022L61.2485 35.6428L57.9673 38.9241C57.4399 39.4514 56.8491 39.7102 56.1948 39.7004C55.5405 39.6809 54.9302 39.3977 54.3638 38.8508L52.2837 36.8ZM34.2075 58.5676C33.7583 58.5676 33.3726 58.4065 33.0503 58.0842C32.7378 57.7717 32.5815 57.3909 32.5815 56.9417C32.5815 56.4924 32.7378 56.1116 33.0503 55.7991C33.3726 55.4768 33.7583 55.3157 34.2075 55.3157C34.6567 55.3157 35.0376 55.4768 35.3501 55.7991C35.6724 56.1116 35.8335 56.4924 35.8335 56.9417C35.8335 57.3909 35.6724 57.7717 35.3501 58.0842C35.0376 58.4065 34.6567 58.5676 34.2075 58.5676Z" fill="#F7DA58"/>
</svg>
