<svg width="125" height="147" viewBox="0 0 125 147" fill="none" xmlns="http://www.w3.org/2000/svg">
<path d="M50.9556 48.6548C54.2035 48.6548 56.8364 51.2877 56.8364 54.5356C56.8364 57.7836 54.2035 60.4165 50.9556 60.4165C47.7077 60.4164 45.0747 57.7836 45.0747 54.5356C45.0748 51.2878 47.7077 48.6548 50.9556 48.6548Z" fill="#BCE3FF" stroke="black" stroke-width="6"/>
<path d="M36.0008 43.6714C40.0137 43.6714 43.0008 46.7247 43.0008 50.1714C43.0008 53.6181 40.0137 56.6714 36.0008 56.6714C31.988 56.6714 29.0008 53.6181 29.0008 50.1714C29.0008 46.7247 31.988 43.6714 36.0008 43.6714Z" fill="#BCE3FF" stroke="black" stroke-width="6"/>
<path d="M91.5008 26.6714C94.5384 26.6714 97.0008 29.1338 97.0008 32.1714C97.0008 35.209 94.5384 37.6714 91.5008 37.6714C88.4632 37.6714 86.0008 35.209 86.0008 32.1714C86.0008 29.1338 88.4632 26.6714 91.5008 26.6714Z" fill="#BCE3FF" stroke="black" stroke-width="6"/>
<circle cx="86.0008" cy="54.6714" r="6" fill="#BCE3FF" stroke="black" stroke-width="6"/>
<circle cx="69.0008" cy="45.6714" r="11" fill="#BCE3FF" stroke="black" stroke-width="6"/>
<circle cx="51.0008" cy="36.6714" r="6" fill="#BCE3FF" stroke="black" stroke-width="6"/>
<path fill-rule="evenodd" clip-rule="evenodd" d="M111.345 68.7444H120.225C120.225 68.7444 122.002 65.4968 122.002 63.416C122.002 61.3351 120.225 58.0875 120.225 58.0875H107.57H94.9154H62.5008H30.0862H17.4312H4.77614C4.77614 58.0875 3 61.3351 3 63.416C3 65.4968 4.77614 68.7444 4.77614 68.7444H17.2091L31.4183 143.342H97.1355L111.345 68.7444ZM90.598 89.861C89.2695 91.9868 86.5426 92.754 84.3005 91.633C81.6846 90.3251 80.807 87.0204 82.4293 84.587L84.7025 81.1772L87.033 77.6815C88.6214 75.2989 91.9434 74.8579 94.0985 76.7436C95.8489 78.2752 96.2295 80.8507 94.9967 82.8232L92.6952 86.5056L90.598 89.861Z" fill="#FED658"/>
<path fill-rule="evenodd" clip-rule="evenodd" d="M90.598 89.861C89.2695 91.9868 86.5426 92.754 84.3005 91.633C81.6846 90.3251 80.807 87.0204 82.4293 84.587L84.7025 81.1772L87.033 77.6815C88.6214 75.2989 91.9434 74.8579 94.0985 76.7436C95.8489 78.2752 96.2295 80.8507 94.9967 82.8232L92.6952 86.5056L90.598 89.861Z" fill="#E6D9FF"/>
<path d="M111.345 68.7444H120.225C120.225 68.7444 122.002 65.4968 122.002 63.416C122.002 61.3351 120.225 58.0875 120.225 58.0875H107.57M111.345 68.7444L97.1355 143.342H31.4183L17.2091 68.7444M111.345 68.7444H17.2091M17.2091 68.7444H4.77614C4.77614 68.7444 3 65.4968 3 63.416C3 61.3351 4.77614 58.0875 4.77614 58.0875H17.4312M107.57 58.0875H94.9154H62.5008H30.0862H17.4312M107.57 58.0875C107.57 58.0875 110.843 25.6271 97.1355 13.684C86.4658 4.38765 76.6497 2.75632 62.5008 3.02711C49.1779 3.2821 40.3544 5.19126 30.0862 13.684C15.8615 25.449 17.4312 58.0875 17.4312 58.0875M92.6952 86.5056L90.598 89.861C89.2695 91.9868 86.5426 92.754 84.3005 91.633C81.6846 90.325 80.807 87.0204 82.4293 84.587L84.7025 81.1772L87.033 77.6815C88.6214 75.2989 91.9434 74.8579 94.0985 76.7436C95.8489 78.2752 96.2295 80.8507 94.9967 82.8232L92.6952 86.5056Z" stroke="black" stroke-width="6"/>
<path d="M26.0008 58.6714H44.0008V70.2098V73.6714C44.0008 78.6419 39.9714 82.6714 35.0008 82.6714C30.0302 82.6714 26.0008 78.642 26.0008 73.6714V70.2098V58.6714Z" fill="#BCE3FF" stroke="black" stroke-width="6"/>
</svg>
