<svg width="100" height="116" viewBox="0 0 100 116" fill="none" xmlns="http://www.w3.org/2000/svg">
<circle cx="40.4223" cy="43.2535" r="4.52291" fill="#BCE3FF" stroke="black" stroke-width="5"/>
<path d="M28.5967 34.7898C31.7055 34.79 34.0039 37.1536 34.0039 39.8025C34.0038 42.4513 31.7054 44.814 28.5967 44.8142C25.4877 44.8142 23.1886 42.4514 23.1885 39.8025C23.1885 37.1535 25.4876 34.7898 28.5967 34.7898Z" fill="#BCE3FF" stroke="black" stroke-width="5"/>
<path d="M72.4849 21.3464C74.8164 21.3465 76.7065 23.2366 76.7065 25.5681C76.7065 27.8996 74.8164 29.7898 72.4849 29.7898C70.1533 29.7898 68.2632 27.8996 68.2632 25.5681C68.2632 23.2366 70.1533 21.3464 72.4849 21.3464Z" fill="#BCE3FF" stroke="black" stroke-width="5"/>
<path d="M68.1353 38.7437C70.6851 38.7437 72.7524 40.811 72.7524 43.3608C72.7524 45.9106 70.6851 47.9779 68.1353 47.978C65.5854 47.978 63.5181 45.9107 63.5181 43.3608C63.5181 40.8109 65.5853 38.7437 68.1353 38.7437Z" fill="#BCE3FF" stroke="black" stroke-width="5"/>
<path d="M54.6924 27.6726C59.4258 27.6728 63.2627 31.5104 63.2627 36.2439C63.2625 40.9772 59.4257 44.814 54.6924 44.8142C49.9589 44.8142 46.1213 40.9773 46.1211 36.2439C46.1211 31.5103 49.9588 27.6726 54.6924 27.6726Z" fill="#BCE3FF" stroke="black" stroke-width="5"/>
<path d="M40.458 24.5095C43.0079 24.5096 45.0752 26.5768 45.0752 29.1267C45.0751 31.6765 43.0078 33.7438 40.458 33.7439C37.9081 33.7439 35.8409 31.6766 35.8408 29.1267C35.8408 26.5768 37.9081 24.5095 40.458 24.5095Z" fill="#BCE3FF" stroke="black" stroke-width="5"/>
<path fill-rule="evenodd" clip-rule="evenodd" d="M88.177 54.4896H95.1997C95.1997 54.4896 96.6042 51.9215 96.6042 50.276C96.6042 48.6304 95.1997 46.0623 95.1997 46.0623H85.1924H75.185H49.5521H23.9193H13.9119H3.90454C3.90454 46.0623 2.5 48.6304 2.5 50.276C2.5 51.9215 3.90454 54.4896 3.90454 54.4896H13.7363L24.9727 113.48H76.9407L88.177 54.4896ZM71.7709 71.1882C70.7203 72.8692 68.5639 73.476 66.7909 72.5894C64.7224 71.5552 64.0284 68.9419 65.3112 67.0176L67.1089 64.3212L68.9517 61.5569C70.2078 59.6728 72.8348 59.324 74.539 60.8152C75.9233 62.0264 76.2242 64.0631 75.2493 65.6228L73.4293 68.5348L71.7709 71.1882Z" fill="#FED658"/>
<path fill-rule="evenodd" clip-rule="evenodd" d="M71.7709 71.1882C70.7203 72.8692 68.5639 73.476 66.7909 72.5894C64.7224 71.5552 64.0284 68.9419 65.3112 67.0176L67.1089 64.3212L68.9517 61.5569C70.2078 59.6728 72.8348 59.324 74.539 60.8152C75.9233 62.0264 76.2242 64.0631 75.2493 65.6228L73.4293 68.5348L71.7709 71.1882Z" fill="white"/>
<path d="M88.177 54.4896H95.1997C95.1997 54.4896 96.6042 51.9215 96.6042 50.276C96.6042 48.6304 95.1997 46.0623 95.1997 46.0623H85.1924M88.177 54.4896L76.9407 113.48H24.9727L13.7363 54.4896M88.177 54.4896H13.7363M13.7363 54.4896H3.90454C3.90454 54.4896 2.5 51.9215 2.5 50.276C2.5 48.6304 3.90454 46.0623 3.90454 46.0623H13.9119M85.1924 46.0623H75.185H49.5521H23.9193H13.9119M85.1924 46.0623C85.1924 46.0623 87.7804 20.3932 76.9407 10.9488C68.5032 3.59745 60.7408 2.30742 49.5521 2.52156C39.0167 2.7232 32.0392 4.23293 23.9193 10.9488C12.6706 20.2524 13.9119 46.0623 13.9119 46.0623M73.4293 68.5348L71.7709 71.1882C70.7203 72.8692 68.5639 73.476 66.7909 72.5894C64.7224 71.5552 64.0284 68.9419 65.3112 67.0176L67.1089 64.3212L68.9517 61.5569C70.2078 59.6728 72.8348 59.324 74.539 60.8152C75.9233 62.0264 76.2242 64.0631 75.2493 65.6228L73.4293 68.5348Z" stroke="black" stroke-width="5"/>
<path d="M20.6885 46.5238H34.9225V55.6482V58.3855C34.9225 62.3162 31.7361 65.5026 27.8055 65.5026C23.8749 65.5026 20.6885 62.3162 20.6885 58.3855V55.6482V46.5238Z" fill="#BCE3FF" stroke="black" stroke-width="5"/>
</svg>
