<svg width="92" height="126" viewBox="0 0 92 126" fill="none" xmlns="http://www.w3.org/2000/svg">
<path d="M0 45.6659C0 39.3365 1.17733 33.4224 3.53198 27.9236C5.91535 22.3962 9.18889 17.5418 13.3526 13.3604C17.545 9.179 22.3979 5.91408 27.9113 3.56563C33.4246 1.18854 39.3399 0 45.6573 0C51.9747 0 57.89 1.18854 63.4034 3.56563C68.9167 5.91408 73.7696 9.179 77.962 13.3604C82.1544 17.5418 85.428 22.3962 87.7826 27.9236C90.1373 33.4224 91.3146 39.3365 91.3146 45.6659C91.2859 52.3103 89.9506 58.5251 87.3088 64.3103C84.667 70.0668 81.0776 75.0215 76.5406 79.1742V120.415C76.5406 122.334 76.0524 123.737 75.0761 124.625C74.0998 125.542 72.8938 126 71.458 126C70.3955 126 69.4336 125.757 68.5721 125.27C67.7394 124.783 66.9066 124.11 66.0739 123.251L48.3709 105.723C47.8827 105.265 47.452 104.936 47.0787 104.735C46.7054 104.535 46.3465 104.434 46.0019 104.434C45.6573 104.434 45.2984 104.535 44.9251 104.735C44.5518 104.936 44.121 105.265 43.6329 105.723L25.973 123.251C25.1115 124.081 24.2644 124.74 23.4317 125.227C22.5989 125.742 21.637 126 20.5458 126C19.1387 126 17.9327 125.542 16.9277 124.625C15.9513 123.737 15.4632 122.334 15.4632 120.415L15.4201 79.8616C10.7108 75.6802 6.96346 70.6396 4.17807 64.7399C1.39269 58.8401 0 52.4821 0 45.6659ZM11.0267 45.6659C11.0267 50.506 11.9025 55.031 13.6541 59.2411C15.4345 63.4224 17.904 67.1026 21.0627 70.2816C24.2213 73.4606 27.8969 75.9666 32.0893 77.7995C36.3105 79.6038 40.8475 80.506 45.7004 80.506C50.5245 80.506 55.0472 79.6038 59.2683 77.7995C63.4895 75.9952 67.1794 73.5036 70.3381 70.3246C73.4968 67.117 75.9663 63.4224 77.7466 59.2411C79.527 55.031 80.4028 50.506 80.3741 45.6659C80.3741 40.8544 79.4839 36.3437 77.7036 32.1337C75.9232 27.895 73.4537 24.1862 70.295 21.0072C67.1363 17.8282 63.4464 15.3508 59.2253 13.5752C55.0328 11.7709 50.5245 10.8687 45.7004 10.8687C40.8475 10.8687 36.3105 11.7709 32.0893 13.5752C27.8969 15.3508 24.2213 17.8282 21.0627 21.0072C17.904 24.1862 15.4345 27.895 13.6541 32.1337C11.9025 36.3437 11.0267 40.8544 11.0267 45.6659Z" fill="#F7DA58"/>
<rect x="15.3145" y="16" width="59.6377" height="58.5356" rx="29.2678" fill="#8A2424"/>
<path d="M27.9028 61.8196C27.1021 61.8196 26.4771 61.595 26.0278 61.1458C25.5884 60.7063 25.3687 60.0862 25.3687 59.2854V35.8186C25.3687 35.0178 25.5884 34.3977 26.0278 33.9583C26.4771 33.509 27.1021 33.2844 27.9028 33.2844H30.5688C31.3696 33.2844 31.9897 33.509 32.4292 33.9583C32.8687 34.3977 33.0884 35.0178 33.0884 35.8186V59.2854C33.0884 60.0862 32.8687 60.7063 32.4292 61.1458C31.9897 61.595 31.3696 61.8196 30.5688 61.8196H27.9028ZM37.4243 61.8196C36.6138 61.8196 35.9839 61.595 35.5347 61.1458C35.0952 60.7063 34.8755 60.0862 34.8755 59.2854V41.3118C34.8755 40.5208 35.0952 39.9006 35.5347 39.4514C35.9839 39.0022 36.6138 38.7776 37.4243 38.7776H42.5659C43.3667 38.7776 43.9868 39.0022 44.4263 39.4514C44.8755 39.9006 45.1001 40.5208 45.1001 41.3118V59.2854C45.1001 60.0862 44.8755 60.7063 44.4263 61.1458C43.9868 61.595 43.3667 61.8196 42.5659 61.8196H37.4243ZM38.5669 44.6516H41.4819C41.7847 44.6516 42.0435 44.5442 42.2583 44.3293C42.4731 44.1145 42.5806 43.8557 42.5806 43.553C42.5806 43.2405 42.4829 42.9768 42.2876 42.762C42.1021 42.5471 41.8335 42.4397 41.4819 42.4397H38.5669C38.2446 42.4397 37.9761 42.5471 37.7612 42.762C37.5562 42.9768 37.4536 43.2405 37.4536 43.553C37.4536 43.8557 37.561 44.1145 37.7759 44.3293C37.9907 44.5442 38.2544 44.6516 38.5669 44.6516ZM38.5669 58.1575H41.4819C41.7847 58.1575 42.0435 58.05 42.2583 57.8352C42.4731 57.6204 42.5806 57.3616 42.5806 57.0588C42.5806 56.7463 42.4731 56.4827 42.2583 56.2678C42.0435 56.053 41.7847 55.9456 41.4819 55.9456H38.5669C38.2544 55.9456 37.9907 56.053 37.7759 56.2678C37.561 56.4827 37.4536 56.7463 37.4536 57.0588C37.4536 57.3616 37.5562 57.6204 37.7612 57.8352C37.9761 58.05 38.2446 58.1575 38.5669 58.1575ZM49.4214 61.8196C48.6206 61.8196 47.9956 61.595 47.5464 61.1458C47.1069 60.7063 46.8872 60.0862 46.8872 59.2854V31.5559C46.8872 30.7551 47.1069 30.135 47.5464 29.6956C47.9956 29.2463 48.6206 29.0217 49.4214 29.0217H52.4536C53.2642 29.0217 53.8892 29.2463 54.3286 29.6956C54.7681 30.135 54.9878 30.7551 54.9878 31.5559V59.2854C54.9878 60.0862 54.7681 60.7063 54.3286 61.1458C53.8892 61.595 53.2642 61.8196 52.4536 61.8196H49.4214ZM59.9243 61.9075C59.1235 61.9954 58.479 61.8391 57.9907 61.4387C57.5024 61.0481 57.2192 60.4524 57.1411 59.6516L54.6948 36.4778C54.6167 35.6868 54.7681 35.0471 55.1489 34.5588C55.5396 34.0608 56.1353 33.7727 56.936 33.6946L58.8843 33.4456C59.6851 33.3577 60.3296 33.5139 60.8179 33.9143C61.3159 34.3049 61.604 34.8958 61.6821 35.6868L64.1284 58.8606C64.2065 59.6516 64.0503 60.2913 63.6597 60.7795C63.269 61.2776 62.6782 61.5706 61.8872 61.6584L59.9243 61.9075Z" fill="#F7DA58"/>
</svg>
