<svg width="600" height="722" viewBox="0 0 600 722" fill="none" xmlns="http://www.w3.org/2000/svg">
<path fill-rule="evenodd" clip-rule="evenodd" d="M299.705 637.525C391.879 637.525 466.6 562.804 466.6 470.63C466.6 435.607 455.813 403.104 437.379 376.262C435.382 373.354 431.314 372.899 428.626 375.183C426.177 377.263 425.768 380.876 427.579 383.53C444.51 408.339 454.409 438.328 454.409 470.63C454.409 556.071 385.146 625.334 299.705 625.334C214.264 625.334 145 556.071 145 470.63C145 385.189 214.264 315.925 299.705 315.925C328.916 315.925 356.236 324.021 379.544 338.092C382.28 339.744 385.845 339.151 387.794 336.618C389.956 333.807 389.286 329.744 386.256 327.902C361.02 312.566 331.394 303.734 299.705 303.734C207.531 303.734 132.809 378.456 132.809 470.63C132.809 562.804 207.531 637.525 299.705 637.525Z" fill="white"/>
<path d="M288.81 24.5078C294.178 17.0874 305.232 17.0875 310.6 24.5078L521.79 316.462C523.449 318.755 524.341 321.513 524.341 324.343V702.385C524.341 709.811 518.321 715.831 510.895 715.831H88.515C81.0887 715.831 75.0687 709.811 75.0687 702.385V324.343C75.0688 321.513 75.9619 318.755 77.6205 316.462L288.81 24.5078Z" stroke="white" stroke-width="11.0736"/>
<path d="M294.168 317.18C294.168 314.122 296.647 311.644 299.705 311.644C302.763 311.644 305.242 314.122 305.242 317.18V347.237C305.242 350.295 302.763 352.774 299.705 352.774C296.647 352.774 294.168 350.295 294.168 347.237V317.18Z" fill="white"/>
<path d="M294.168 594.021C294.168 590.963 296.647 588.484 299.705 588.484C302.763 588.484 305.242 590.963 305.242 594.021V624.078C305.242 627.136 302.763 629.615 299.705 629.615C296.647 629.615 294.168 627.136 294.168 624.078V594.021Z" fill="white"/>
<path d="M423.097 476.166C420.039 476.166 417.56 473.687 417.56 470.629C417.56 467.571 420.039 465.092 423.097 465.092H453.154C456.212 465.092 458.691 467.571 458.691 470.629C458.691 473.687 456.212 476.166 453.154 476.166H423.097Z" fill="white"/>
<path d="M146.256 476.166C143.198 476.166 140.719 473.687 140.719 470.629C140.719 467.571 143.198 465.092 146.256 465.092H176.313C179.371 465.092 181.85 467.571 181.85 470.629C181.85 473.687 179.371 476.166 176.313 476.166H146.256Z" fill="white"/>
<path d="M240.382 455.601L297.332 525.998L446.826 303.734" stroke="white" stroke-width="12.6556" stroke-linecap="round"/>
<rect x="99.9878" y="277" width="10.7286" height="166.845" rx="5.36429" transform="rotate(36.8188 99.9878 277)" fill="white"/>
<rect x="599.703" y="410.232" width="10.7286" height="166.845" rx="5.36429" transform="rotate(142.991 599.703 410.232)" fill="white"/>
</svg>
