<svg width="75" height="66" viewBox="0 0 75 66" fill="none" xmlns="http://www.w3.org/2000/svg">
<path d="M18.126 60.2178C16.4189 60.2178 15.0488 59.6562 14.0156 58.5332C12.9824 57.4326 12.4658 55.9614 12.4658 54.1196V-5.14355C12.4658 -8.7373 13.4204 -11.4888 15.3296 -13.3979C17.2612 -15.3296 20.0127 -16.2954 23.584 -16.2954H51.1436C54.6924 -16.2954 57.4214 -15.3296 59.3306 -13.3979C61.2622 -11.4888 62.228 -8.7373 62.228 -5.14355V54.1196C62.228 55.9614 61.7114 57.4326 60.6782 58.5332C59.645 59.6562 58.2749 60.2178 56.5679 60.2178C55.4897 60.2178 54.5239 59.9482 53.6704 59.4092C52.8169 58.8701 51.7163 57.9492 50.3687 56.6465L37.6333 43.9448C37.4536 43.7651 37.2739 43.7651 37.0942 43.9448L24.3589 56.6465C23.0337 57.9492 21.9219 58.8701 21.0234 59.4092C20.1475 59.9482 19.1816 60.2178 18.126 60.2178Z" fill="#52CA8F"/>
<path d="M24.0156 34.4414C23.375 34.4414 22.875 34.2617 22.5156 33.9023C22.1641 33.5508 21.9883 33.0547 21.9883 32.4141V13.6406C21.9883 13 22.1641 12.5039 22.5156 12.1523C22.875 11.793 23.375 11.6133 24.0156 11.6133H26.1484C26.7891 11.6133 27.2852 11.793 27.6367 12.1523C27.9883 12.5039 28.1641 13 28.1641 13.6406V32.4141C28.1641 33.0547 27.9883 33.5508 27.6367 33.9023C27.2852 34.2617 26.7891 34.4414 26.1484 34.4414H24.0156ZM31.6328 34.4414C30.9844 34.4414 30.4805 34.2617 30.1211 33.9023C29.7695 33.5508 29.5938 33.0547 29.5938 32.4141V18.0352C29.5938 17.4023 29.7695 16.9062 30.1211 16.5469C30.4805 16.1875 30.9844 16.0078 31.6328 16.0078H35.7461C36.3867 16.0078 36.8828 16.1875 37.2344 16.5469C37.5938 16.9062 37.7734 17.4023 37.7734 18.0352V32.4141C37.7734 33.0547 37.5938 33.5508 37.2344 33.9023C36.8828 34.2617 36.3867 34.4414 35.7461 34.4414H31.6328ZM32.5469 20.707H34.8789C35.1211 20.707 35.3281 20.6211 35.5 20.4492C35.6719 20.2773 35.7578 20.0703 35.7578 19.8281C35.7578 19.5781 35.6797 19.3672 35.5234 19.1953C35.375 19.0234 35.1602 18.9375 34.8789 18.9375H32.5469C32.2891 18.9375 32.0742 19.0234 31.9023 19.1953C31.7383 19.3672 31.6562 19.5781 31.6562 19.8281C31.6562 20.0703 31.7422 20.2773 31.9141 20.4492C32.0859 20.6211 32.2969 20.707 32.5469 20.707ZM32.5469 31.5117H34.8789C35.1211 31.5117 35.3281 31.4258 35.5 31.2539C35.6719 31.082 35.7578 30.875 35.7578 30.6328C35.7578 30.3828 35.6719 30.1719 35.5 30C35.3281 29.8281 35.1211 29.7422 34.8789 29.7422H32.5469C32.2969 29.7422 32.0859 29.8281 31.9141 30C31.7422 30.1719 31.6562 30.3828 31.6562 30.6328C31.6562 30.875 31.7383 31.082 31.9023 31.2539C32.0742 31.4258 32.2891 31.5117 32.5469 31.5117ZM41.2305 34.4414C40.5898 34.4414 40.0898 34.2617 39.7305 33.9023C39.3789 33.5508 39.2031 33.0547 39.2031 32.4141V10.2305C39.2031 9.58984 39.3789 9.09375 39.7305 8.74219C40.0898 8.38281 40.5898 8.20312 41.2305 8.20312H43.6562C44.3047 8.20312 44.8047 8.38281 45.1562 8.74219C45.5078 9.09375 45.6836 9.58984 45.6836 10.2305V32.4141C45.6836 33.0547 45.5078 33.5508 45.1562 33.9023C44.8047 34.2617 44.3047 34.4414 43.6562 34.4414H41.2305ZM49.6328 34.5117C48.9922 34.582 48.4766 34.457 48.0859 34.1367C47.6953 33.8242 47.4688 33.3477 47.4062 32.707L45.4492 14.168C45.3867 13.5352 45.5078 13.0234 45.8125 12.6328C46.125 12.2344 46.6016 12.0039 47.2422 11.9414L48.8008 11.7422C49.4414 11.6719 49.957 11.7969 50.3477 12.1172C50.7461 12.4297 50.9766 12.9023 51.0391 13.5352L52.9961 32.0742C53.0586 32.707 52.9336 33.2188 52.6211 33.6094C52.3086 34.0078 51.8359 34.2422 51.2031 34.3125L49.6328 34.5117Z" fill="#1B7D4D"/>
</svg>
