<svg width="92" height="126" viewBox="0 0 92 126" fill="none" xmlns="http://www.w3.org/2000/svg">
<path d="M0 45.6659C0 39.3365 1.17733 33.4224 3.53198 27.9236C5.91535 22.3962 9.18889 17.5418 13.3526 13.3604C17.545 9.179 22.3979 5.91408 27.9113 3.56563C33.4246 1.18854 39.3399 0 45.6573 0C51.9747 0 57.89 1.18854 63.4034 3.56563C68.9167 5.91408 73.7696 9.179 77.962 13.3604C82.1544 17.5418 85.428 22.3962 87.7826 27.9236C90.1373 33.4224 91.3146 39.3365 91.3146 45.6659C91.2859 52.3103 89.9506 58.5251 87.3088 64.3103C84.667 70.0668 81.0776 75.0215 76.5406 79.1742V120.415C76.5406 122.334 76.0524 123.737 75.0761 124.625C74.0998 125.542 72.8938 126 71.458 126C70.3955 126 69.4336 125.757 68.5721 125.27C67.7394 124.783 66.9066 124.11 66.0739 123.251L48.3709 105.723C47.8827 105.265 47.452 104.936 47.0787 104.735C46.7054 104.535 46.3465 104.434 46.0019 104.434C45.6573 104.434 45.2984 104.535 44.9251 104.735C44.5518 104.936 44.121 105.265 43.6329 105.723L25.973 123.251C25.1115 124.081 24.2644 124.74 23.4317 125.227C22.5989 125.742 21.637 126 20.5458 126C19.1387 126 17.9327 125.542 16.9277 124.625C15.9513 123.737 15.4632 122.334 15.4632 120.415L15.4201 79.8616C10.7108 75.6802 6.96346 70.6396 4.17807 64.7399C1.39269 58.8401 0 52.4821 0 45.6659ZM11.0267 45.6659C11.0267 50.506 11.9025 55.031 13.6541 59.2411C15.4345 63.4224 17.904 67.1026 21.0627 70.2816C24.2213 73.4606 27.8969 75.9666 32.0893 77.7995C36.3105 79.6038 40.8475 80.506 45.7004 80.506C50.5245 80.506 55.0472 79.6038 59.2683 77.7995C63.4895 75.9952 67.1794 73.5036 70.3381 70.3246C73.4968 67.1169 75.9663 63.4224 77.7466 59.2411C79.527 55.031 80.4028 50.506 80.3741 45.6659C80.3741 40.8544 79.4839 36.3437 77.7036 32.1337C75.9232 27.895 73.4537 24.1862 70.295 21.0072C67.1363 17.8282 63.4464 15.3508 59.2253 13.5752C55.0328 11.7709 50.5245 10.8687 45.7004 10.8687C40.8475 10.8687 36.3105 11.7709 32.0893 13.5752C27.8969 15.3508 24.2213 17.8282 21.0627 21.0072C17.904 24.1862 15.4345 27.895 13.6541 32.1337C11.9025 36.3437 11.0267 40.8544 11.0267 45.6659Z" fill="#77756D"/>
<rect x="15.3145" y="16" width="59.6377" height="58.5356" rx="29.2678" fill="#919191"/>
</svg>
