<svg width="75" height="66" viewBox="0 0 75 66" fill="none" xmlns="http://www.w3.org/2000/svg">
<path d="M18.126 60.2178C16.4189 60.2178 15.0488 59.6562 14.0156 58.5332C12.9824 57.4326 12.4658 55.9614 12.4658 54.1196V-5.14355C12.4658 -8.7373 13.4204 -11.4888 15.3296 -13.3979C17.2612 -15.3296 20.0127 -16.2954 23.584 -16.2954H51.1436C54.6924 -16.2954 57.4214 -15.3296 59.3306 -13.3979C61.2622 -11.4888 62.228 -8.7373 62.228 -5.14355V54.1196C62.228 55.9614 61.7114 57.4326 60.6782 58.5332C59.645 59.6562 58.2749 60.2178 56.5679 60.2178C55.4897 60.2178 54.5239 59.9482 53.6704 59.4092C52.8169 58.8701 51.7163 57.9492 50.3687 56.6465L37.6333 43.9448C37.4536 43.7651 37.2739 43.7651 37.0942 43.9448L24.3589 56.6465C23.0337 57.9492 21.9219 58.8701 21.0234 59.4092C20.1475 59.9482 19.1816 60.2178 18.126 60.2178Z" fill="#E1595C"/>
<path d="M31.3086 24.2461L24.418 17.3555C23.4727 16.4102 22.9961 15.4492 22.9883 14.4727C22.9805 13.4961 23.4336 12.5469 24.3477 11.625L26.1641 9.79688C27.0781 8.88281 28.0273 8.43359 29.0117 8.44922C30.0039 8.45703 30.9688 8.92969 31.9062 9.86719L39.3828 17.3906L31.3086 24.2461ZM31.3086 19.4062C31.4414 19.5469 31.6016 19.6172 31.7891 19.6172C31.9844 19.6172 32.1523 19.5508 32.293 19.418C32.4258 19.2852 32.4922 19.125 32.4922 18.9375C32.5 18.75 32.4375 18.5859 32.3047 18.4453L28.0508 14.1914C27.9258 14.0586 27.7695 13.9922 27.582 13.9922C27.3945 13.9922 27.2305 14.0547 27.0898 14.1797C26.9492 14.3203 26.875 14.4883 26.8672 14.6836C26.8672 14.8789 26.9375 15.0469 27.0781 15.1875L31.3086 19.4062ZM32.9727 17.7539C33.1055 17.8945 33.2695 17.9609 33.4648 17.9531C33.668 17.9453 33.832 17.8828 33.957 17.7656C34.0977 17.625 34.168 17.457 34.168 17.2617C34.168 17.0664 34.1016 16.8984 33.9688 16.7578L29.7266 12.5273C29.5938 12.3945 29.4336 12.3281 29.2461 12.3281C29.0586 12.3281 28.8984 12.3906 28.7656 12.5156C28.625 12.6484 28.5547 12.8125 28.5547 13.0078C28.5547 13.2031 28.6211 13.3711 28.7539 13.5117L32.9727 17.7539ZM47.9727 35.3438C47.8008 35.5156 47.6055 35.5977 47.3867 35.5898C47.1758 35.5898 46.9609 35.5234 46.7422 35.3906L42.9922 33.1641C42.7734 33.0312 42.5938 32.8594 42.4531 32.6484C42.3203 32.4375 42.2422 32.2188 42.2188 31.9922L42.125 30.9375L36.582 25.3945L39.8633 21.9727L45.4766 27.5859L46.5195 27.6797C47.0352 27.7266 47.4336 27.9844 47.7148 28.4531L49.9297 32.1797C50.0625 32.4062 50.1289 32.625 50.1289 32.8359C50.1367 33.0547 50.0625 33.2461 49.9062 33.4102L47.9727 35.3438ZM25.332 34.0547C24.6133 33.3359 24.1367 32.5508 23.9023 31.6992C23.6758 30.8477 23.6836 30.0078 23.9258 29.1797C24.168 28.3438 24.6289 27.5859 25.3086 26.9062C25.7227 26.4922 26.1758 26.1211 26.668 25.793C27.168 25.457 27.7148 25.1133 28.3086 24.7617C28.9023 24.4102 29.5547 24.0156 30.2656 23.5781C30.9844 23.1328 31.7656 22.6055 32.6094 21.9961C33.4531 21.3789 34.3711 20.6367 35.3633 19.7695C36.3633 18.8945 37.4453 17.8516 38.6094 16.6406L40.1914 18.2227C38.832 19.582 37.6211 20.7266 36.5586 21.6562C35.4961 22.5781 34.5469 23.3438 33.7109 23.9531C32.8828 24.5625 32.1445 25.0703 31.4961 25.4766C30.8477 25.8828 30.2578 26.2383 29.7266 26.543C29.2031 26.8477 28.7188 27.1562 28.2734 27.4688C27.8281 27.7734 27.3867 28.1406 26.9492 28.5703C26.4023 29.1172 26.1172 29.7383 26.0938 30.4336C26.0703 31.1289 26.3633 31.7891 26.9727 32.4141C27.5898 33.0156 28.2461 33.3047 28.9414 33.2812C29.6367 33.2578 30.2617 32.9688 30.8164 32.4141C31.2461 31.9844 31.6133 31.5469 31.918 31.1016C32.2305 30.6562 32.5391 30.1719 32.8438 29.6484C33.1484 29.125 33.5 28.5391 33.8984 27.8906C34.3047 27.2344 34.8125 26.4922 35.4219 25.6641C36.0391 24.8281 36.8086 23.8789 37.7305 22.8164C38.6523 21.7461 39.793 20.5352 41.1523 19.1836L42.7344 20.7656C41.5469 21.9062 40.5234 22.9727 39.6641 23.9648C38.8047 24.9492 38.0664 25.8633 37.4492 26.707C36.832 27.5508 36.2969 28.332 35.8438 29.0508C35.3984 29.7695 34.9961 30.4297 34.6367 31.0312C34.2852 31.6406 33.9375 32.1953 33.5938 32.6953C33.25 33.1953 32.8711 33.6523 32.457 34.0664C31.7852 34.7539 31.0312 35.2148 30.1953 35.4492C29.3594 35.6914 28.5195 35.6953 27.6758 35.4609C26.832 35.2344 26.0508 34.7656 25.332 34.0547ZM39.6406 19.7344C38.9453 19.0391 38.418 18.2578 38.0586 17.3906C37.6992 16.5234 37.5078 15.6367 37.4844 14.7305C37.4688 13.8242 37.625 12.9453 37.9531 12.0938C38.2812 11.2422 38.7812 10.4805 39.4531 9.80859C40.2188 9.04297 41.1055 8.50391 42.1133 8.19141C43.1211 7.87109 44.1602 7.78906 45.2305 7.94531C46.3086 8.09375 47.3164 8.48828 48.2539 9.12891L46.6016 10.7812C45.6875 10.2578 44.7148 10.0547 43.6836 10.1719C42.6523 10.2891 41.7773 10.707 41.0586 11.4258C40.457 12.0195 40.0625 12.7188 39.875 13.5234C39.6953 14.3281 39.7188 15.1367 39.9453 15.9492C40.1797 16.7617 40.6172 17.4883 41.2578 18.1289C41.8906 18.7617 42.6133 19.1953 43.4258 19.4297C44.2461 19.6641 45.0547 19.6914 45.8516 19.5117C46.6562 19.3242 47.3594 18.9336 47.9609 18.3398C48.4375 17.8633 48.7812 17.3125 48.9922 16.6875C49.2109 16.0547 49.2891 15.3984 49.2266 14.7188C49.1641 14.0391 48.957 13.3867 48.6055 12.7617L50.2461 11.1094C50.8945 12.0547 51.293 13.0664 51.4414 14.1445C51.5977 15.2148 51.5156 16.2578 51.1953 17.2734C50.8828 18.2891 50.3438 19.1797 49.5781 19.9453C48.9062 20.6172 48.1445 21.1172 47.293 21.4453C46.4414 21.7656 45.5586 21.918 44.6445 21.9023C43.7383 21.8789 42.8516 21.6875 41.9844 21.3281C41.1172 20.9688 40.3359 20.4375 39.6406 19.7344ZM43.3203 14.4258C42.8672 13.9727 42.6328 13.4844 42.6172 12.9609C42.6094 12.4297 42.8242 11.9453 43.2617 11.5078L45.875 8.88281L47.1992 10.1953L44.9844 12.3984C44.7188 12.6719 44.7305 12.957 45.0195 13.2539L46.1562 14.3906C46.4297 14.6562 46.7031 14.6523 46.9766 14.3789L49.1797 12.1875L50.4922 13.5L47.8672 16.125C47.4453 16.5469 46.9727 16.7539 46.4492 16.7461C45.9258 16.7305 45.4375 16.5039 44.9844 16.0664L43.3203 14.4258ZM28.8594 31.8398C28.5 31.8398 28.1914 31.7109 27.9336 31.4531C27.6836 31.2031 27.5586 30.8984 27.5586 30.5391C27.5586 30.1797 27.6836 29.875 27.9336 29.625C28.1914 29.3672 28.5 29.2383 28.8594 29.2383C29.2188 29.2383 29.5234 29.3672 29.7734 29.625C30.0312 29.875 30.1602 30.1797 30.1602 30.5391C30.1602 30.8984 30.0312 31.2031 29.7734 31.4531C29.5234 31.7109 29.2188 31.8398 28.8594 31.8398Z" fill="#950F0F"/>
</svg>
