<svg width="164" height="150" viewBox="0 0 164 150" fill="none" xmlns="http://www.w3.org/2000/svg">
<path d="M77.6931 3.36148C80.2245 1.38576 83.7755 1.38576 86.3069 3.36148L147.961 51.4818C153.211 55.579 150.313 64 143.654 64H20.3459C13.6867 64 10.7894 55.579 16.039 51.4818L77.6931 3.36148Z" fill="white"/>
<path fill-rule="evenodd" clip-rule="evenodd" d="M32 79.9775C32 73.3625 37.8203 68 45 68H119C126.18 68 132 73.3625 132 79.9775V138.022C132 144.637 126.18 150 119 150H114V119.596C114 111.454 106.837 104.854 98 104.854C89.1634 104.854 82 111.454 82 119.596V150H45C37.8203 150 32 144.637 32 138.022V79.9775ZM85 150H111V119.596C111 112.981 105.18 107.618 98 107.618C90.8203 107.618 85 112.981 85 119.596V150Z" fill="white"/>
</svg>
