<svg width="888" height="849" viewBox="0 0 888 849" fill="none" xmlns="http://www.w3.org/2000/svg">
<path d="M418.765 20.6852C433.438 8.6573 454.562 8.65728 469.235 20.6852L801.88 293.354C830.798 317.058 814.037 363.947 776.645 363.947H111.355C73.9633 363.947 57.2018 317.058 86.1198 293.354L418.765 20.6852Z" fill="white"/>
<path d="M555 673.5C555 669.358 558.358 666 562.5 666H591.374V676C591.374 678.761 589.135 681 586.374 681H562.5C558.358 681 555 677.642 555 673.5Z" fill="white" stroke="white" stroke-width="4"/>
<path d="M453.495 781C457.349 781 460.474 784.124 460.474 787.979V819H446V787.979C446 784.124 449.124 781 452.979 781H453.495Z" fill="white" stroke="white" stroke-width="4"/>
<path d="M460.942 519V550.019C460.942 553.874 457.817 557 453.961 557H453.45C449.595 557 446.469 553.874 446.469 550.019V519H460.942Z" fill="white" stroke="white" stroke-width="4"/>
<path d="M319.735 666H349.128C352.983 666 356.109 669.126 356.109 672.981V674.019C356.109 677.874 352.983 681 349.128 681H319.735V666Z" fill="white" stroke="white" stroke-width="4"/>
<path d="M213.614 382.746C186 382.746 163.614 405.132 163.614 432.746V798.746C163.614 826.36 186 848.746 213.614 848.746H345.211C360.069 848.746 370.057 833.058 364.291 819.365C339.743 761.061 294.016 631.169 344.049 570.746C401.655 501.179 521.401 509.385 567.331 576.246C612.096 641.409 574.555 764.432 553.791 820.099C548.717 833.703 558.693 848.746 573.212 848.746H684.912C712.526 848.746 734.912 826.36 734.912 798.746V432.746C734.912 405.132 712.526 382.746 684.912 382.746H213.614Z" fill="white"/>
<path d="M416 683.278L437.013 714L492.173 617" stroke="white" stroke-width="19" stroke-linecap="round"/>
</svg>
