<svg width="621" height="522" viewBox="0 0 621 522" fill="none" xmlns="http://www.w3.org/2000/svg">
<path d="M591.776 204.775C604.748 212.303 621 202.944 621 187.946C621 181.007 617.398 174.647 611.395 171.167C572.74 148.758 425.614 63.4681 321.017 2.83206C314.504 -0.944017 306.496 -0.944017 299.983 2.83206C195.386 63.4681 48.2604 148.758 9.60542 171.167C3.60201 174.647 0 181.007 0 187.946C0 202.944 16.2525 212.303 29.2242 204.775L80.986 174.735L121.5 152.083L300.056 49.7224C306.525 46.014 314.475 46.014 320.944 49.7224L499.5 152.083L540.014 174.735L591.776 204.775Z" fill="white"/>
<path d="M499.5 152.083V481.235H195.271V441.735H163.5V481.235V500.735C163.5 512.333 172.902 521.735 184.5 521.735H519.014C530.612 521.735 540.014 512.333 540.014 500.735V174.735L499.5 152.083Z" fill="white"/>
<path d="M121.5 409.306V152.083L80.986 174.735V420.735C80.986 432.333 90.388 441.735 101.986 441.735H163.5V409.306H121.5Z" fill="white"/>
<path d="M163.5 441.735H195.271L195.798 409.306H163.5V441.735Z" fill="white"/>
<path d="M314.473 327.083L358.204 267.223C362.229 261.713 361.025 253.983 355.515 249.958C350.005 245.933 342.276 247.136 338.25 252.646L304.009 299.517L292.111 281.262C288.386 275.545 280.731 273.931 275.014 277.657C269.297 281.383 267.684 289.038 271.41 294.754L292.152 326.58C294.761 330.583 299.296 332.574 303.744 332.129C303.832 332.134 303.921 332.139 304.009 332.142C307.98 332.295 311.953 330.533 314.473 327.083Z" fill="white"/>
<path d="M310 226.398C316.824 226.398 322.355 220.866 322.355 214.042V181.164C318.297 180.729 314.174 180.506 310 180.506C305.826 180.506 301.703 180.729 297.645 181.164V214.042C297.645 220.866 303.176 226.398 310 226.398Z" fill="white"/>
<path d="M195.271 295.235C195.271 299.409 195.494 303.532 195.929 307.591H228.807C235.631 307.591 241.163 302.059 241.163 295.235C241.163 288.411 235.631 282.88 228.807 282.88H195.929C195.494 286.939 195.271 291.061 195.271 295.235Z" fill="white"/>
<path d="M310 409.964C314.174 409.964 318.297 409.741 322.355 409.306V376.428C322.355 369.604 316.824 364.072 310 364.072C303.176 364.072 297.645 369.604 297.645 376.428V409.306C301.703 409.741 305.826 409.964 310 409.964Z" fill="white"/>
<path d="M378.837 295.235C378.837 302.059 384.369 307.591 391.193 307.591H424.071C424.506 303.532 424.729 299.409 424.729 295.235C424.729 291.061 424.506 286.939 424.071 282.88H391.193C384.369 282.88 378.837 288.411 378.837 295.235Z" fill="white"/>
<path d="M163.5 295.235V409.306H195.798L195.826 387.04C175.604 361.922 163.5 329.992 163.5 295.235Z" fill="white"/>
<path d="M195.271 441.735H310C275.185 441.735 243.206 429.59 218.068 409.306H195.798L195.271 441.735Z" fill="white"/>
<path fill-rule="evenodd" clip-rule="evenodd" d="M310 441.735C390.91 441.735 456.5 376.145 456.5 295.235C456.5 214.325 390.91 148.735 310 148.735C229.09 148.735 163.5 214.325 163.5 295.235C163.5 329.992 175.604 361.922 195.826 387.04L195.929 307.591C195.494 303.532 195.271 299.409 195.271 295.235C195.271 291.061 195.494 286.939 195.929 282.88C201.656 229.386 244.151 186.892 297.645 181.164C301.703 180.729 305.826 180.506 310 180.506C314.174 180.506 318.297 180.729 322.355 181.164C375.849 186.892 418.344 229.386 424.071 282.88C424.506 286.939 424.729 291.061 424.729 295.235C424.729 299.409 424.506 303.532 424.071 307.591C418.344 361.084 375.849 403.579 322.355 409.306C318.297 409.741 314.174 409.964 310 409.964C305.826 409.964 301.703 409.741 297.645 409.306H218.068C243.206 429.59 275.185 441.735 310 441.735Z" fill="white"/>
</svg>
