<svg width="119" height="141" viewBox="0 0 119 141" fill="none" xmlns="http://www.w3.org/2000/svg">
<path d="M59.0315 0.00574254C62.3671 -0.382782 79.6997 19.0599 83.2962 22.9583C83.2255 19.3321 83.3006 15.5571 83.3272 11.9194C88.6933 11.848 94.055 11.8727 99.4211 11.9934C99.8236 21.6495 99.8634 30.4346 99.8502 40.1192C105.783 46.9436 112.303 53.6572 118.01 60.6863C119.05 61.966 119.063 62.7847 118.957 64.279C117.762 65.6207 106.906 65.1093 104.61 65.095C104.765 83.1027 107.238 120.193 103.986 138.357C103.46 141.282 74.2274 140.113 69.5072 140.091C58.4786 140.009 47.4544 140.02 36.4258 140.13C29.8077 140.152 20.7124 140.667 14.4305 139.043C13.9704 117.471 14.1076 85.9996 14.9614 64.8843C12.0726 64.9255 1.12808 65.9067 0 63.0509C0.880341 58.9006 52.9001 5.43246 59.0315 0.00574254Z" fill="#201F20"/>
<path d="M59.5269 2.72656C62.5042 4.19834 80.6552 25.9574 84.6809 27.2716L85.3179 26.6235C86.1849 23.6015 85.5302 17.8812 85.2383 14.5294L97.3905 14.5524C97.6515 23.551 97.2931 32.4432 97.6824 41.6295C102.611 47.8969 110.105 55.9451 115.497 62.1576C112.648 62.1609 105.291 61.8453 103 62.5165C101.783 67.5333 103.164 95.3616 103.172 103.028C103.19 115.293 103.385 124.292 102.389 137.068L72.4136 137.079C53.8379 137.095 35.0278 137.293 16.4699 137.013C16.8945 112.071 17.0007 87.1247 16.7839 62.1806L3.62305 62.1669C8.63967 55.7195 16.9963 47.6258 22.7207 41.6147C35.0809 28.6331 47.4764 16.2245 59.5269 2.72656Z" fill="white"/>
<path d="M42.2252 92.2942C42.5614 92.2448 42.8445 92.1954 43.1763 92.2723C44.3707 92.5357 54.0147 102.326 54.4703 103.796C55.2666 106.37 51.7541 124.496 50.4491 127.031C46.9631 128.551 41.8845 127.695 38.2083 127.624C36.2884 127.662 34.1561 127.887 32.2583 127.574C31.4399 127.443 30.471 127.135 30.0065 126.241C28.5423 123.442 26.0517 106.436 26.4719 103.088C27.0293 102.841 28.4759 102.589 28.8696 102.249C30.6834 100.685 31.7495 96.4319 34.1472 94.6265C35.3549 93.71 38.1198 95.3783 42.2252 92.2942Z" fill="#201F20"/>
<path d="M28.3301 104.504C36.4743 104.328 44.6407 104.487 52.785 104.504C51.8161 110.419 50.8916 116.346 50.0113 122.284C49.883 123.041 49.675 123.776 49.4892 124.517C46.6757 126.762 35.2932 125.51 31.3206 125.423C30.25 118.464 29.2502 111.489 28.3301 104.504Z" fill="#818181"/>
<path d="M36.0668 106.693C38.5839 106.627 42.3397 106.057 44.6534 107.324C45.7372 107.917 45.9231 108.208 46.3566 109.541C46.1133 111.094 45.7019 111.852 44.8436 113.01C42.2424 113.147 37.7125 113.899 35.4696 112.06C34.6866 111.418 34.6821 111.023 34.4609 109.969C34.7662 108.521 35.2395 107.769 36.0668 106.693Z" fill="#201F20"/>
<path d="M36.443 109.042C38.562 108.883 42.4151 108.103 44.105 109.673L43.9546 110.825C41.9329 110.924 38.0754 111.599 36.4297 110.134L36.443 109.042Z" fill="white"/>
<path d="M42.7736 94.5054C43.8486 94.7743 44.1628 94.6426 44.8485 95.7511L44.7556 96.448C43.5833 97.3096 36.6644 101.782 35.6646 102.254C35.0895 102.528 33.581 102.325 32.9041 102.347C32.2273 102.254 32.1875 102.215 31.6787 101.65C31.9972 99.4881 33.3598 97.4193 34.333 95.5974C38.0181 96.5523 39.3496 96.8102 42.7736 94.5054Z" fill="#FFDAC3"/>
<path d="M41.185 100.097C43.3969 99.9711 45.9672 99.7077 48.1348 100.399C49.0948 100.701 49.3028 100.822 49.7805 101.87L49.0373 102.276C46.8342 102.237 41.592 103.286 40.0127 101.497L41.185 100.097Z" fill="#F3D43B"/>
<path d="M47.0027 46.4862C47.162 46.4713 47.3168 46.4538 47.476 46.4422C48.9669 46.3336 51.4575 46.3369 52.5989 47.5952C53.112 49.1663 53.0456 49.5175 52.6696 51.2011C51.7229 55.471 57.4695 71.9542 53.9304 78.3879C53.143 79.8136 52.0061 79.8405 50.763 80.1868C48.4316 80.1895 44.95 80.8107 42.8885 79.3329C37.4649 75.4372 44.4678 55.7136 42.9372 49.8994C42.7204 49.0752 42.9991 48.4507 43.1849 47.6281C44.1891 46.4582 45.6888 46.6058 47.0027 46.4862Z" fill="#201F20"/>
<path d="M45.1312 54.8309L45.2241 53.5034C46.6264 52.3516 48.4446 52.7385 50.2451 52.8191C51.8996 58.7567 54.5318 70.7944 52.311 76.7446C50.6919 78.4464 45.0471 78.5951 43.543 77.0843C42.3751 73.8455 43.2953 67.5375 42.9856 63.6896C43.2909 59.9366 43.9854 58.2821 45.1312 54.8309Z" fill="#36C6FF"/>
<path d="M45.1319 54.8311L46.2245 55.7843C46.2865 58.7915 45.7468 60.2967 44.6187 62.8018C43.9242 63.2386 43.7428 63.3961 42.9863 63.6897C43.2916 59.9367 43.9861 58.2822 45.1319 54.8311Z" fill="#8CC6FF"/>
<path d="M44.7645 48.6662C46.4986 48.574 49.5998 47.9698 50.9933 49.3736L51.0109 50.5874C49.0733 50.6643 46.3969 51.1807 44.7158 49.9196L44.7645 48.6662Z" fill="white"/>
<path d="M58.916 43.6428L59.9512 44.0127C61.5526 46.4119 60.8757 79.3283 60.8669 84.6332C67.2372 84.6497 90.4313 83.2503 94.4747 86.1917C92.5725 88.2221 65.2775 87.3112 60.8713 87.3112C60.9023 100.811 61.8977 115.66 60.3184 128.979L59.5663 128.556C57.8808 125.851 58.7169 92.936 58.7258 87.3331C51.8512 87.3331 30.6256 88.4416 25.2197 86.6307L25.4453 85.9996C30.9176 83.1746 51.6654 84.6277 58.7346 84.6222C58.7169 71.031 58.1773 57.2104 58.916 43.6428Z" fill="#201F20"/>
<path d="M28.5245 60.661C31.4044 60.5891 35.231 59.9657 37.8853 61.3425C39.3407 64.0671 40.1503 73.6705 39.5973 76.9856C39.2832 78.8657 38.9426 78.9699 37.6906 79.9763C35.0009 80.3352 30.9797 80.8873 28.4979 79.421C27.4451 78.7992 26.7417 77.7802 26.4276 76.3825C25.5959 72.6773 27.2637 69.253 27.7989 65.7244C28.1263 63.5678 27.5335 62.7386 28.5245 60.661Z" fill="#201F20"/>
<path d="M30.3999 66.2089C31.7934 66.1376 33.8594 65.7825 35.1467 66.4131C36.4473 67.048 37.5621 68.7678 38.0045 70.3729C38.4911 72.1218 38.2965 75.3211 37.6108 76.9696C37.2746 77.7741 36.8233 77.7225 36.1642 77.9766L28.281 77.9025C28.2279 76.4033 28.1924 74.903 28.1836 73.4021C28.188 70.4069 28.6393 68.3623 30.3999 66.2089Z" fill="#55D680"/>
<path d="M29.29 62.9704C31.5329 62.7487 34.4217 62.1868 36.5584 63.0807L36.7575 64.0789C35.5365 64.1645 34.3067 64.2616 33.0813 64.283C31.4843 64.311 30.4491 64.3544 29.29 62.9704Z" fill="#C9C8CA"/>
<path d="M83.8972 47.4419L91.9397 47.488C91.8866 52.1487 92.5104 73.5619 91.745 76.0264C89.1748 75.9254 86.6045 75.8634 84.0298 75.8404C83.5432 70.8933 83.8795 53.2983 83.8972 47.4419Z" fill="#201F20"/>
<path d="M85.6762 49.4403C87.1449 49.3794 88.4366 49.3931 89.8876 49.7515C91.1794 51.5267 90.5468 70.234 90.5291 73.7702C89.1356 73.7856 86.99 74.1193 85.8531 73.0503C85.0037 65.5772 85.6319 57.0324 85.6762 49.4403Z" fill="#8D58F7"/>
<path d="M74.4395 55.0753L82.3713 55.0615C82.3758 58.5802 82.5837 73.4083 81.9953 76.016C80.071 75.7592 76.8549 75.9183 74.8288 75.9463C74.1386 69.297 74.8066 61.7718 74.4395 55.0753Z" fill="#201F20"/>
<path d="M75.9751 57.2819C77.342 57.2012 78.7665 56.8478 79.9211 57.9025C81.9826 61.8641 80.8546 69.1165 80.8103 73.7338C79.346 73.804 78.0985 73.8271 76.6608 73.3815C75.3071 69.167 75.9706 61.8032 75.9751 57.2819Z" fill="#ED6AF3"/>
<path d="M64.9278 62.2529L72.8907 62.198C72.9305 66.7829 72.9173 71.3684 72.8376 75.9527L64.8438 75.9451C64.7907 71.381 64.8172 66.8158 64.9278 62.2529Z" fill="#201F20"/>
<path d="M66.6447 64.3723C67.2021 64.3366 67.7595 64.3119 68.3213 64.2971C69.1308 64.2823 69.9316 64.3026 70.5155 65.0692C72.0373 67.0602 71.4445 71.8701 71.4047 74.4542C69.9537 74.2237 68.5646 74.1386 67.295 73.1739C66.0209 70.9668 66.5739 67.0278 66.6447 64.3723Z" fill="#D64B4D"/>
<path d="M83.2207 95.5041C84.0745 95.4986 85.03 95.5371 85.8484 95.8334C89.2194 97.0572 90.2944 102.128 91.8162 105.585C92.6258 106.117 93.2672 106.457 93.7494 107.445C93.2141 109.695 91.5994 111.967 90.5023 113.893L89.445 114.179C88.14 113.251 87.1845 112.016 86.2864 110.529C85.5167 109.256 85.1583 108.268 85.322 106.677C85.6228 106.485 86.1006 106.254 86.3351 105.958C87.7021 104.251 83.3623 97.9736 83.2207 95.5041Z" fill="#201F20"/>
<path d="M67.6934 103.576C68.8878 104.41 70.5733 106.688 71.2811 108.164C72.3251 110.348 70.7635 111.654 70.7237 113.723C70.6706 116.549 74.0416 119.09 73.4178 122.426L72.2057 122.964C68.3702 120.879 66.0787 115.018 63.7783 110.897C64.0747 107.889 66.1052 105.7 67.6934 103.576Z" fill="#201F20"/>
<path d="M67.609 106.853C67.8965 107.067 68.2637 107.308 68.4937 107.621C69.5289 109.031 69.0777 114.672 69.0202 116.648C68.2549 114.678 67.0825 112.302 66.7286 110.162C66.4676 108.587 66.9587 108.109 67.609 106.853Z" fill="#ACFFBD"/>
<path d="M88.5202 114.749C88.706 114.958 88.7769 115.018 88.9405 115.303C89.3343 115.984 89.4935 116.478 89.3564 117.295C88.5733 121.998 83.0303 125.417 80.0442 127.788C78.6728 127.82 77.5492 126.443 76.4875 125.477C76.0141 124.956 75.3726 124.363 75.1293 123.633C74.9214 123.013 74.9302 122.777 75.1205 122.146C75.6867 120.292 77.2926 119.199 78.6507 118.382C80.6901 117.164 80.3848 118.557 82.0659 119.265C84.3486 118.481 86.534 116.329 88.5202 114.749Z" fill="#201F20"/>
<path d="M86.052 119.408L86.1846 119.518C86.105 119.677 86.0343 119.841 85.9458 119.995C84.7204 122.163 80.2258 124.286 78.1377 124.846C77.6157 123.688 77.4919 123.661 77.7131 122.3C79.4914 120.39 83.234 121.257 85.6317 119.688L86.052 119.408Z" fill="#ACFFBD"/>
<path d="M76.855 89.7971C78.859 91.4215 81.2832 92.8428 82.1193 95.7292C81.9866 96.4701 81.8097 97.0902 81.385 97.6664C80.3232 99.0987 78.6157 100.811 77.0717 100.937C76.6338 100.322 76.2357 99.7133 75.6119 99.3785C74.9528 99.0273 74.1387 99.6858 73.4796 99.9986C72.0286 101.058 70.1927 102.781 68.5072 102.902L67.9365 101.694C68.3081 96.0201 74.8068 94.6372 76.2578 92.0141C76.5276 91.5257 76.6957 90.3953 76.855 89.7971Z" fill="#201F20"/>
<path d="M91.7456 76.0261L92.0906 76.9415C93.0993 77.6581 92.7276 77.1522 93.17 78.5987L92.7542 79.1431C88.5162 79.5135 66.5828 80.6138 64.1807 78.8605L64.2824 78.2185C67.0031 77.0474 71.6746 77.1055 74.643 77.1236L74.8288 75.946C76.855 75.918 80.0711 75.7589 81.9954 76.0157L82.0574 77.1928L83.8667 77.1067L84.0304 75.8401C86.605 75.8631 89.1753 75.9251 91.7456 76.0261Z" fill="#262322"/>
<path d="M74.8284 75.9464C76.8545 75.9185 80.0706 75.7593 81.995 76.0161L82.0569 77.1932L74.6426 77.1241L74.8284 75.9464Z" fill="#252228"/>
<path d="M91.746 76.0261L92.0911 76.9415C89.8571 77.1588 86.2118 77.0759 83.8672 77.1067L84.0309 75.8401C86.6055 75.8631 89.1758 75.9251 91.746 76.0261Z" fill="#262322"/>
</svg>
